<?xml version="1.0" encoding="UTF-8" standalone="no"?>
<svg
   width="536"
   height="115"
   viewBox="0 0 536 115"
   fill="none"
   version="1.1"
   id="svg12"
   sodipodi:docname="Allo Bank ID logo.svg"
   inkscape:version="1.1.1 (3bf5ae0d25, 2021-09-20)"
   xmlns:inkscape="http://www.inkscape.org/namespaces/inkscape"
   xmlns:sodipodi="http://sodipodi.sourceforge.net/DTD/sodipodi-0.dtd"
   xmlns="http://www.w3.org/2000/svg"
   xmlns:svg="http://www.w3.org/2000/svg">
  <defs
     id="defs16" />
  <sodipodi:namedview
     id="namedview14"
     pagecolor="#ffffff"
     bordercolor="#666666"
     borderopacity="1.0"
     inkscape:pageshadow="2"
     inkscape:pageopacity="0.0"
     inkscape:pagecheckerboard="0"
     showgrid="false"
     inkscape:zoom="0.9869403"
     inkscape:cx="370.8431"
     inkscape:cy="161.61059"
     inkscape:window-width="1366"
     inkscape:window-height="715"
     inkscape:window-x="-8"
     inkscape:window-y="-8"
     inkscape:window-maximized="1"
     inkscape:current-layer="svg12" />
  <path
     d="M0 91.0404C0 102.812 9.66801 113.51 25.2442 113.51C37.374 113.51 44.7145 107.378 48.161 101.738C48.161 106.975 52.4579 111.227 57.65 111.227C61.3202 111.227 65.3933 111.227 68.4817 111.227C68.8845 111.227 69.2426 111.003 69.4664 110.6C69.6007 110.242 69.6007 109.795 69.3321 109.436C67.0494 108.094 64.5876 105.319 64.5876 99.2761V62.2602C64.5876 47.4448 55.8596 34.4199 32.8981 34.4199C15.1286 34.4199 3.6255 45.2069 1.70085 57.5604C1.61133 58.1871 2.01417 58.8137 2.68556 58.948C5.50539 59.6194 13.2487 61.365 16.4267 62.0811C16.74 62.1707 17.098 62.0811 17.4114 61.9021C17.6352 61.723 17.859 61.4097 17.9485 61.0517C19.1122 54.2035 24.2148 48.9219 33.0324 48.9219C42.8346 48.9219 47.0868 53.9797 47.0868 60.246C47.0868 62.842 45.923 64.9905 41.6261 65.6171L22.4692 68.5265C9.80228 70.4064 0 77.7469 0 91.0404ZM185.035 34.4646C162.879 34.4646 146.452 51.1151 146.452 73.8976C146.452 96.8591 162.879 113.51 185.035 113.51C207.37 113.51 223.752 96.8591 223.752 73.8976C223.752 51.1151 207.325 34.4646 185.035 34.4646ZM144.707 111.227C145.244 111.227 145.691 110.869 145.781 110.376C145.871 109.884 145.647 109.347 145.154 109.168C145.065 109.123 144.931 109.078 144.841 109.034C139.559 106.661 136.113 101.335 136.113 95.5163V1.52181C136.113 1.11898 135.979 0.760908 135.665 0.447593C135.442 0.179037 135.039 0 134.681 0C130.831 0 120.716 0 116.911 0C116.464 0 116.061 0.179037 115.837 0.447593C115.524 0.716149 115.389 1.11898 115.389 1.52181C115.389 11.4584 115.389 68.7503 115.389 96.2772C115.389 104.558 122.059 111.227 130.339 111.227C135.397 111.227 140.857 111.227 144.707 111.227ZM105.274 111.227C105.721 111.227 106.214 110.869 106.259 110.376C106.393 109.884 106.124 109.347 105.632 109.168C105.542 109.123 105.498 109.078 105.408 109.034C100.037 106.661 96.6801 101.335 96.6801 95.5163C96.6801 77.7469 96.6801 40.0596 96.6801 28.9593C96.6801 28.1088 96.2772 27.3032 95.6954 26.7213C95.1582 26.1394 94.3078 25.7814 93.4574 25.7814C91.5327 25.7814 89.1605 25.7814 87.2358 25.7814C86.5645 25.7814 85.9378 25.4233 85.6245 24.7966C85.4007 24.2148 85.4902 23.4986 85.8483 22.9615C89.9214 17.9037 98.5152 7.25101 102.32 2.50652C102.723 2.05893 102.767 1.4323 102.454 0.895186C102.23 0.358074 101.693 0.044762 101.156 0.044762C95.024 0.044762 81.7752 0.044762 77.2993 0.044762C76.8964 0.044762 76.5384 0.223799 76.2251 0.492355C76.0013 0.760911 75.7775 1.16374 75.7775 1.56658C75.7775 11.5031 75.7775 68.795 75.7775 96.322C75.7775 104.602 82.5361 111.272 90.8166 111.272C96.0087 111.227 101.469 111.227 105.274 111.227ZM28.6012 99.5894C21.5292 99.5894 17.7247 95.024 17.7247 89.9662C17.7247 83.8341 22.1558 80.7905 27.706 79.8506L47.0868 76.9412V80.2982C47.0868 94.8897 38.5825 99.5894 28.6012 99.5894ZM185.035 97.62C174.158 97.62 164.267 89.3395 164.267 73.8976C164.267 58.4556 174.158 50.4885 185.035 50.4885C196.09 50.4885 205.803 58.4556 205.803 73.8976C205.803 89.5186 196.09 97.62 185.035 97.62Z"
     fill="#FFB003"
     id="path2" />
  <path
     d="M234.046 112.928V1.70117H248.995V48.5194H249.891C250.741 46.908 251.994 45.0729 253.65 42.9692C255.307 40.8655 257.545 39.0304 260.454 37.4191C263.363 35.8525 267.213 35.0468 271.957 35.0468C278.179 35.0468 283.684 36.6134 288.563 39.7466C293.441 42.8797 297.246 47.4004 300.066 53.3086C302.841 59.2169 304.228 66.3336 304.228 74.6588C304.228 82.984 302.841 90.1008 300.066 96.009C297.291 101.917 293.486 106.483 288.652 109.661C283.818 112.838 278.268 114.45 272.091 114.45C267.436 114.45 263.587 113.644 260.633 112.078C257.679 110.511 255.351 108.676 253.695 106.572C252.039 104.468 250.741 102.589 249.846 100.977H248.593V112.928H234.046ZM248.727 74.4798C248.727 79.8956 249.533 84.6401 251.099 88.7132C252.666 92.7863 254.948 95.9642 257.903 98.2469C260.857 100.53 264.527 101.693 268.824 101.693C273.3 101.693 277.015 100.485 280.058 98.1127C283.057 95.7404 285.34 92.473 286.907 88.3551C288.473 84.2373 289.234 79.6271 289.234 74.4798C289.234 69.422 288.473 64.8565 286.951 60.8282C285.43 56.7998 283.147 53.6219 280.148 51.2497C277.104 48.9222 273.345 47.7585 268.869 47.7585C264.527 47.7585 260.857 48.8775 257.858 51.1154C254.859 53.3534 252.621 56.4865 251.054 60.4701C249.488 64.4985 248.727 69.1534 248.727 74.4798Z"
     fill="white"
     id="path4"
     style="fill:#333333;fill-opacity:1" />
  <path
     d="M337.798 114.629C332.919 114.629 328.533 113.734 324.594 111.898C320.655 110.063 317.522 107.422 315.239 103.976C312.957 100.485 311.793 96.2326 311.793 91.2196C311.793 86.878 312.643 83.2972 314.3 80.5221C315.956 77.7023 318.238 75.5091 321.058 73.853C323.878 72.1969 327.056 70.9884 330.592 70.138C334.083 69.2876 337.664 68.6609 341.289 68.2581C345.9 67.721 349.615 67.2734 352.524 66.9153C355.389 66.5572 357.492 65.9754 358.79 65.1697C360.088 64.364 360.76 63.066 360.76 61.2757V60.9176C360.76 56.5312 359.551 53.1742 357.089 50.7572C354.628 48.3402 351.002 47.1317 346.168 47.1317C341.11 47.1317 337.171 48.2507 334.262 50.4439C331.353 52.6819 329.383 55.1436 328.264 57.8292L314.21 54.6065C315.866 49.9516 318.328 46.147 321.551 43.2824C324.773 40.4178 328.488 38.3141 332.696 36.9714C336.903 35.6733 341.334 35.002 345.944 35.002C349.033 35.002 352.3 35.36 355.747 36.0762C359.193 36.7923 362.46 38.0903 365.459 40.015C368.458 41.9396 370.965 44.6252 372.889 48.1612C374.814 51.6972 375.799 56.2626 375.799 61.8575V112.928H361.162V102.409H360.581C359.596 104.334 358.164 106.259 356.239 108.139C354.314 110.019 351.808 111.54 348.764 112.794C345.676 114.047 342.05 114.629 337.798 114.629ZM341.066 102.633C345.183 102.633 348.764 101.828 351.718 100.171C354.672 98.5154 356.91 96.4117 358.477 93.7261C360.043 91.0853 360.804 88.2207 360.804 85.1771V75.2853C360.267 75.8224 359.238 76.3148 357.716 76.7624C356.194 77.21 354.449 77.6128 352.524 77.9261C350.599 78.2394 348.719 78.508 346.884 78.7765C345.049 79.0451 343.527 79.2241 342.274 79.4032C339.365 79.7612 336.724 80.3879 334.352 81.2383C331.979 82.0887 330.055 83.342 328.622 84.9533C327.19 86.5646 326.474 88.7131 326.474 91.3987C326.474 95.1137 327.862 97.8887 330.592 99.7686C333.322 101.693 336.813 102.633 341.066 102.633Z"
     fill="white"
     id="path6"
     style="fill:#333333;fill-opacity:1" />
  <path
     d="M405.026 67.2735V112.928H390.076V36.0316H404.444V48.5642H405.384C407.174 44.4911 409.949 41.2237 413.709 38.7619C417.514 36.3001 422.258 35.0469 428.032 35.0469C433.269 35.0469 437.879 36.1211 441.818 38.3143C445.757 40.5075 448.8 43.7302 450.994 48.0718C453.142 52.3687 454.261 57.6951 454.261 64.0509V112.973H439.311V65.8413C439.311 60.2464 437.879 55.9047 434.97 52.7268C432.06 49.5936 428.077 47.9823 423.019 47.9823C419.528 47.9823 416.484 48.7432 413.799 50.2203C411.113 51.7421 409.009 53.9353 407.443 56.7999C405.787 59.7092 405.026 63.2005 405.026 67.2735Z"
     fill="white"
     id="path8"
     style="fill:#333333;fill-opacity:1" />
  <path
     d="M468.63 112.928V1.70117H483.579V112.928H468.63ZM482.371 86.8781L482.281 68.6163H484.878L515.538 36.0763H533.441L498.484 73.137H496.112L482.371 86.8781ZM517.194 112.928L489.667 76.3597L499.961 65.886L535.545 112.883H517.194V112.928Z"
     fill="white"
     id="path10"
     style="fill:#333333;fill-opacity:1" />
</svg>
