<?xml version="1.0" encoding="UTF-8"?>
<svg version="1.1" xmlns="http://www.w3.org/2000/svg" width="915" height="512">
<path d="M0 0 C28.05 0 56.1 0 85 0 C85.33 47.85 85.66 95.7 86 145 C92.93 140.545 92.93 140.545 100 136 C123.44328499 122.31226731 148.00248641 115.79339332 175 114 C176.09183594 113.92652344 177.18367187 113.85304688 178.30859375 113.77734375 C212.412585 112.73565477 249.2591745 124.82666498 276 146 C276.83789062 146.64710938 277.67578125 147.29421875 278.5390625 147.9609375 C284.56069993 152.6775761 290.65518786 157.51872457 296 163 C296 163.66 296 164.32 296 165 C296.66 165 297.32 165 298 165 C301.25955534 168.44220284 304.10962223 172.24570451 307 176 C307.40847168 176.52964355 307.81694336 177.05928711 308.23779297 177.60498047 C337.40750358 215.87499077 349.2145446 264.1500367 343.2734375 311.765625 C342.44497443 317.24226729 341.32306603 322.62293787 340 328 C339.81808105 328.75829102 339.63616211 329.51658203 339.44873047 330.29785156 C328.78681789 373.42190546 300.55586047 411.37577272 262.98681641 434.81103516 C257.19334378 438.27800636 251.14517697 441.21510707 245 444 C244.38688965 444.27827637 243.7737793 444.55655273 243.14208984 444.84326172 C235.74054683 448.1374752 228.24651108 450.64579424 220.4375 452.75 C219.70684326 452.94875732 218.97618652 453.14751465 218.22338867 453.35229492 C205.65536934 456.56628035 193.15093185 457.37967551 180.25 457.3125 C179.50232361 457.31034485 178.75464722 457.3081897 177.98431396 457.30596924 C166.75190404 457.25407705 155.91522469 456.83139287 145 454 C144.2265625 453.80664062 143.453125 453.61328125 142.65625 453.4140625 C123.17564746 448.42061691 105.67781582 440.15368466 89 429 C88.01 428.34 87.02 427.68 86 427 C85.67 434.92 85.34 442.84 85 451 C56.95 451 28.9 451 0 451 C0 302.17 0 153.34 0 0 Z M102.3203125 233.125 C88.98703053 249.64569955 83.25352942 272.00691735 85 293 C87.84077132 318.48141326 99.29934294 338.17011846 118.25 354.8125 C135.95953335 368.7143559 158.7355152 374.83020837 181 373 C204.1795179 369.96771087 225.84586175 359.21875371 240.66015625 340.78125 C255.33009349 321.59390351 261.9951011 298.94248726 259.3125 274.875 C256.00626787 251.98570062 244.72258519 231.11709968 226.33544922 216.69433594 C185.66408527 186.31654885 134.90181276 196.3559088 102.3203125 233.125 Z " fill="#005AFD" transform="translate(0,55)"/>
<path d="M0 0 C38.39677881 -0.7756925 74.17159617 12.61994628 101.96875 39.125 C116.18537159 52.99801744 126.15053493 70.93216001 131.84375 89.875 C132.03493408 90.51099121 132.22611816 91.14698242 132.4230957 91.80224609 C136.25667105 105.57388262 136.24634623 119.17389949 136.19580078 133.34692383 C136.1952358 135.57541397 136.19555492 137.80390448 136.19668579 140.03239441 C136.19725692 146.04799472 136.18554163 152.06351441 136.17153788 158.07909608 C136.15899032 164.37846605 136.15785685 170.67783809 136.15548706 176.97721863 C136.14998775 187.53926961 136.13751632 198.10129434 136.11962891 208.66333008 C136.10123463 219.53604995 136.08709555 230.40876182 136.07861328 241.28149414 C136.07808783 241.95313974 136.07756239 242.62478533 136.07702102 243.31678382 C136.0744107 246.68666563 136.07188334 250.05654749 136.06939721 253.42642939 C136.04852202 281.32597809 136.0118606 309.22547619 135.96875 337.125 C107.91875 337.125 79.86875 337.125 50.96875 337.125 C50.94893066 330.91196045 50.92911133 324.6989209 50.90869141 318.29760742 C50.84179645 297.7738978 50.76425573 277.25023862 50.68122292 256.72658825 C50.63113843 244.28266309 50.58469501 231.83874437 50.546875 219.39477539 C50.5138951 208.54641309 50.47403075 197.69810147 50.42595994 186.84979516 C50.40075462 181.10772798 50.37895575 175.36569415 50.36540604 169.62358665 C50.35253151 164.21375947 50.33041925 158.80404703 50.30136681 153.39428329 C50.29233308 151.41385836 50.28661067 149.43341496 50.28453636 147.4529705 C50.26149254 128.78594535 48.99081797 113.51215788 35.3828125 99.3125 C23.4043568 88.45823593 7.0926971 84.63861329 -8.7109375 84.9375 C-23.34111742 85.76367487 -40.9612109 89.03425305 -51.7421875 99.83984375 C-53.03125 101.125 -53.03125 101.125 -55.03125 101.125 C-55.44117188 102.0221875 -55.44117188 102.0221875 -55.859375 102.9375 C-56.99285476 105.05332889 -58.12298136 106.41323882 -59.78125 108.125 C-71.78396541 121.88850496 -72.47960673 138.66230566 -72.46362305 155.93847656 C-72.47265329 157.92052313 -72.48298358 159.90256414 -72.49450684 161.88459778 C-72.52195466 167.23290515 -72.5313447 172.58110619 -72.53736091 177.92947483 C-72.5467765 183.53088613 -72.57298239 189.13221901 -72.59736633 194.73358154 C-72.64094759 205.32608208 -72.66954594 215.91856733 -72.69268972 226.51113009 C-72.71978636 238.57652045 -72.76369507 250.64183158 -72.80897844 262.70716524 C-72.9017048 287.51307864 -72.97122154 312.31898444 -73.03125 337.125 C-101.41125 337.125 -129.79125 337.125 -159.03125 337.125 C-159.03125 228.885 -159.03125 120.645 -159.03125 9.125 C-130.65125 9.125 -102.27125 9.125 -73.03125 9.125 C-72.53625 16.055 -72.53625 16.055 -72.03125 23.125 C-70.896875 22.3 -69.7625 21.475 -68.59375 20.625 C-48.21772912 7.09429854 -24.2028943 0.9980575 0 0 Z " fill="#005AFD" transform="translate(779.03125,168.875)"/>
<path d="M0 0 C0 29.37 0 58.74 0 89 C31.35 89 62.7 89 95 89 C95 116.39 95 143.78 95 172 C63.65 172 32.3 172 0 172 C0.0615085 196.2588987 0.0615085 196.2588987 0.16015625 220.51757812 C0.20864735 230.41511811 0.25311019 240.31255613 0.27099609 250.21020508 C0.28404319 257.41973812 0.31108537 264.62906298 0.35461307 271.83847874 C0.37715957 275.65235769 0.39291481 279.46598053 0.39188385 283.27993202 C0.39113317 286.87766376 0.40924537 290.47483084 0.44116783 294.07241631 C0.4536056 296.00614378 0.4466347 297.93996643 0.43885803 299.87371826 C0.57092407 311.03939293 3.16981802 320.75293333 11 329 C22.80726108 339.96752053 37.02044971 340.57379293 52.29980469 340.13623047 C65.13090937 339.48887455 77.00412349 336.4380349 89 332 C90.98 331.34 92.96 330.68 95 330 C95 356.73 95 383.46 95 411 C81.46153846 417.76923077 81.46153846 417.76923077 75.4375 419.25 C74.28121094 419.54390625 73.12492188 419.8378125 71.93359375 420.140625 C70.62349331 420.43206142 69.31218431 420.71809453 68 421 C66.84165649 421.26707764 66.84165649 421.26707764 65.65991211 421.53955078 C57.36141798 423.27997153 49.12585597 423.40017416 40.6875 423.375 C39.56391586 423.37318726 39.56391586 423.37318726 38.41763306 423.37133789 C7.5644894 423.23667434 -22.44753128 414.69884196 -46 394 C-46.81726563 393.32582031 -47.63453125 392.65164063 -48.4765625 391.95703125 C-71.25150227 372.60185798 -83.50531112 342.36833021 -86 313 C-86.140517 308.38257296 -86.12640247 303.7676823 -86.11352539 299.1484375 C-86.11324291 297.75811261 -86.11340244 296.36778757 -86.1139679 294.97746277 C-86.11425349 291.22391075 -86.10839523 287.47039102 -86.10139394 283.71684647 C-86.09512079 279.7864117 -86.09455348 275.85597611 -86.09336853 271.92553711 C-86.09026686 264.4919849 -86.08206922 257.05844748 -86.07201904 249.62490177 C-86.06082167 241.15813211 -86.05533834 232.69136172 -86.05032361 224.22458649 C-86.03988559 206.81638245 -86.02230878 189.40819279 -86 172 C-86.71187973 172.00222061 -87.42375946 172.00444122 -88.1572113 172.00672913 C-94.85274235 172.02673253 -101.54826511 172.04197438 -108.24381924 172.05181217 C-111.68640348 172.05703982 -115.12896312 172.06413531 -118.5715332 172.07543945 C-122.52555043 172.08834235 -126.47955756 172.09322918 -130.43359375 172.09765625 C-132.29605995 172.10539818 -132.29605995 172.10539818 -134.19615173 172.11329651 C-135.90781273 172.11340981 -135.90781273 172.11340981 -137.65405273 172.11352539 C-138.664431 172.115746 -139.67480927 172.11796661 -140.71580505 172.12025452 C-143 172 -143 172 -144 171 C-144.3388324 166.42447591 -144.32514729 161.83644922 -144.375 157.25 C-144.41238281 155.9609375 -144.44976562 154.671875 -144.48828125 153.34375 C-144.50568359 151.47976562 -144.50568359 151.47976562 -144.5234375 149.578125 C-144.54325684 148.43762695 -144.56307617 147.29712891 -144.58349609 146.12207031 C-143.81811752 142.0268146 -142.134826 140.65474066 -139 138 C-138.117677 137.22257446 -138.117677 137.22257446 -137.2175293 136.42944336 C-136.67523682 135.98737549 -136.13294434 135.54530762 -135.57421875 135.08984375 C-134.95095703 134.58130859 -134.32769531 134.07277344 -133.68554688 133.54882812 C-132.69651367 132.7512207 -132.69651367 132.7512207 -131.6875 131.9375 C-130.98818359 131.37095703 -130.28886719 130.80441406 -129.56835938 130.22070312 C-124.1512838 125.86085447 -118.61733884 121.67771794 -113.02905273 117.54101562 C-106.06487659 112.36012833 -99.3582875 106.87235152 -92.66894531 101.34350586 C-91 100 -91 100 -88.91493225 98.75917053 C-86.7620657 97.14286256 -86.7620657 97.14286256 -86.58195496 94.51135254 C-86.61831558 93.52082886 -86.65467621 92.53030518 -86.69213867 91.50976562 C-86.73518379 89.82155701 -86.73518379 89.82155701 -86.77909851 88.09924316 C-86.82492569 86.88055542 -86.87075287 85.66186768 -86.91796875 84.40625 C-86.9570947 81.8229648 -86.99279134 79.23962581 -87.02539062 76.65625 C-87.09015 72.58397286 -87.18061554 68.51509114 -87.33911133 64.4453125 C-88.15503601 42.50682485 -88.15503601 42.50682485 -84.61679077 36.74914551 C-81.23540186 33.15381765 -77.29054805 30.91813017 -72.83859253 28.87060547 C-70.40097805 27.71635271 -68.31508944 26.21194518 -66.15234375 24.609375 C-63.96058807 23.11117105 -61.75864586 21.63171872 -59.54418945 20.16723633 C-55.15549178 17.24415516 -51.00079071 14.22302547 -46.953125 10.83984375 C-29.57550445 -2.86372498 -25.44897505 0 0 0 Z " fill="#005AFD" transform="translate(487,89)"/>
<path d="M0 0 C3.97430912 2.28954764 6.54156591 4.62469773 8 9 C8.10135908 10.52696072 8.14832636 12.05786724 8.16113281 13.58813477 C8.17074036 14.51662735 8.1803479 15.44511993 8.19024658 16.40174866 C8.1966214 17.90637917 8.1966214 17.90637917 8.203125 19.44140625 C8.20882507 20.47885483 8.21452515 21.51630341 8.22039795 22.58518982 C8.2298509 24.78505432 8.2363831 26.98493301 8.24023438 29.18481445 C8.24989204 32.52516023 8.28089317 35.86487803 8.3125 39.20507812 C8.31903515 41.34635053 8.3242836 43.48762732 8.328125 45.62890625 C8.3404718 46.61782364 8.3528186 47.60674103 8.36553955 48.62562561 C8.3210553 62.71541528 2.92013844 73.53064687 -6.609375 83.70703125 C-16.23088599 92.93550666 -27.48056492 96.44475332 -40.3371582 98.75952148 C-41.69130406 99.01145142 -43.04529196 99.26423159 -44.39913654 99.51777554 C-48.13431039 100.21339504 -51.8722132 100.89308963 -55.61113787 101.56822729 C-58.03356036 102.00606584 -60.45543562 102.44682556 -62.87719345 102.88832474 C-74.77584823 105.0557871 -86.68098532 107.18637352 -98.58765578 109.30929494 C-103.742346 110.22886345 -108.89657355 111.15101852 -114.05085754 112.07286072 C-123.79095897 113.81448614 -133.53145819 115.55387583 -143.27211124 117.29241318 C-154.26760566 119.25503195 -165.26264413 121.22019907 -176.25764692 123.18556988 C-188.75384862 125.41924207 -201.25009084 127.65268807 -213.74665743 129.88431805 C-215.67178403 130.22811195 -217.59690083 130.57196071 -219.52200741 130.91586667 C-224.0877241 131.73138222 -228.65362289 132.5458456 -233.21997356 133.3578043 C-240.32880414 134.62273456 -247.4370423 135.88864478 -254.53591675 137.20849687 C-256.52347301 137.57801826 -258.51162722 137.94431897 -260.49979877 138.3105154 C-262.81968736 138.73880609 -265.13847173 139.17315303 -267.45572948 139.61545658 C-273.41415722 140.71004643 -278.94087684 141.20330317 -285 141 C-286.54861762 138.05561857 -287.25520876 136.07798814 -287.265625 132.734375 C-287.26949219 131.52201172 -287.26949219 131.52201172 -287.2734375 130.28515625 C-287.26183594 129.03025391 -287.26183594 129.03025391 -287.25 127.75 C-287.25773438 126.92886719 -287.26546875 126.10773438 -287.2734375 125.26171875 C-287.24915969 117.60206967 -286.56699863 110.39358065 -280.97949219 104.69921875 C-273.14767028 97.97629318 -260.67822868 95.14132599 -251.0897522 91.56069946 C-246.076258 89.68806755 -241.06777856 87.80209079 -236.05859375 85.91796875 C-234.99839523 85.51954269 -233.93819672 85.12111664 -232.84587097 84.71061707 C-220.65050183 80.12393221 -208.48184532 75.46768261 -196.3125 70.8125 C-177.11461775 63.47232752 -157.90633533 56.16013542 -138.6875 48.875 C-137.47953766 48.41709076 -136.27157532 47.95918152 -135.02700806 47.48739624 C-130.20053509 45.6578455 -125.37404151 43.82834917 -120.54750061 41.99897766 C-108.36273728 37.38027399 -96.18085541 32.75399888 -84 28.125 C-82.98354401 27.73874451 -81.96708801 27.35248901 -80.91983032 26.95452881 C-64.30618909 20.64087599 -47.69647154 14.31694017 -31.08984375 7.98486328 C-30.26328278 7.66977814 -29.4367218 7.35469299 -28.58511353 7.03005981 C-27.06793191 6.4516949 -25.55081524 5.87315958 -24.03378296 5.29440308 C-22.68671627 4.7809284 -21.33930386 4.26835951 -19.99150085 3.75682068 C-18.59619891 3.22657066 -17.20210044 2.69314804 -15.80891418 2.15736389 C-10.31662536 0.06149348 -5.84028105 -1.19460294 0 0 Z " fill="#FF0000" transform="translate(907,0)"/>
</svg>
