<?xml version="1.0" encoding="UTF-8" standalone="no"?>


<svg
   xmlns:dc="http://purl.org/dc/elements/1.1/"
   xmlns:cc="http://creativecommons.org/ns#"
   xmlns:rdf="http://www.w3.org/1999/02/22-rdf-syntax-ns#"
   xmlns:svg="http://www.w3.org/2000/svg"
   xmlns="http://www.w3.org/2000/svg"
   xmlns:sodipodi="http://sodipodi.sourceforge.net/DTD/sodipodi-0.dtd"
   xmlns:inkscape="http://www.inkscape.org/namespaces/inkscape"
   width="789.22961mm"
   height="173.38004mm"
   viewBox="0 0 789.2296 173.38003"
   version="1.1"
   id="svg8"
   inkscape:version="0.92.3 (2405546, 2018-03-11)"
   sodipodi:docname="Sinarmas_logo.svg">
  <defs
     id="defs2" />
  <sodipodi:namedview
     id="base"
     pagecolor="#ffffff"
     bordercolor="#666666"
     borderopacity="1.0"
     inkscape:pageopacity="0.0"
     inkscape:pageshadow="2"
     inkscape:zoom="0.12374369"
     inkscape:cx="2136.0253"
     inkscape:cy="-653.31423"
     inkscape:document-units="mm"
     inkscape:current-layer="text845"
     showgrid="false"
     fit-margin-top="0"
     fit-margin-left="0"
     fit-margin-right="0"
     fit-margin-bottom="0"
     inkscape:window-width="1366"
     inkscape:window-height="745"
     inkscape:window-x="-8"
     inkscape:window-y="-8"
     inkscape:window-maximized="1" />
  <metadata
     id="metadata5">
    <rdf:RDF>
      <cc:Work
         rdf:about="">
        <dc:format>image/svg+xml</dc:format>
        <dc:type
           rdf:resource="http://purl.org/dc/dcmitype/StillImage" />
        <dc:title></dc:title>
      </cc:Work>
    </rdf:RDF>
  </metadata>
  <g
     inkscape:label="Layer 1"
     inkscape:groupmode="layer"
     id="layer1"
     transform="translate(70.003965,1012.1338)">
    <g
       id="g901"
       transform="matrix(0.29841012,0,0,0.29841012,-95.053494,-956.38918)">
      <path
         inkscape:connector-curvature="0"
         id="path840"
         d="m 130.52334,393.83137 c -9.44443,-1.16969 -18.32778,-4.80448 -26.06146,-10.66352 -2.32636,-1.76247 -7.082853,-6.47729 -8.989813,-8.91106 -6.35004,-8.10432 -10.14908,-17.46721 -11.24129,-27.70468 -0.38331,-3.59281 -0.38331,-482.07075 0,-485.66355 1.06,-9.93556 4.72786,-19.1726 10.79088,-27.17551 1.76245,-2.32636 6.477283,-7.08285 8.911053,-8.98981 8.10432,-6.35004 17.46722,-10.14908 27.70468,-11.24129 3.5928,-0.38331 482.07075,-0.38331 485.66355,0 9.93555,1.06 19.17261,4.72786 27.17551,10.79088 2.32635,1.76245 7.08284,6.47728 8.9898,8.91105 6.35005,8.10432 10.1491,17.46722 11.2413,27.70468 0.3833,3.5928 0.3833,482.07074 0,485.66355 -1.0922,10.23747 -4.89125,19.60036 -11.2413,27.70468 -1.90696,2.43377 -6.66345,7.14859 -8.9898,8.91106 -8.0029,6.063 -17.23996,9.73087 -27.17551,10.79087 -1.7549,0.18722 -78.8674,0.26501 -243.28437,0.2454 -195.81403,-0.0233 -241.23332,-0.0929 -243.49323,-0.37275 z"
         style="fill:#ec1c24;fill-opacity:1;stroke-width:0.26458332" />
      <path
         inkscape:connector-curvature="0"
         d="m 374.54907,92.409404 c 0.27231,-10.16969 1.46526,-17.99998 4.17526,-27.4056 7.89053,-27.38587 27.18998,-50.88015 52.76254,-64.23079044 9.51434,-4.96712996 20.45311,-8.65176996 30.97834,-10.43479996 10.40371,-1.7624396 22.5593,-1.9474196 32.65395,-0.4969196 22.84085,3.2819996 43.82087,13.7625396 60.06245,30.0041 19.69871,19.69872 30.93559,46.52321 30.95149,73.88692 l 0.003,4.69636 h 5.59705 5.59704 l -0.16528,-5.35782 c -0.73636,-23.8707 -8.19785,-48.8348 -20.89714,-69.91614 C 569.83845,12.481754 562.95368,3.7541436 553.61518,-5.5613264 542.13899,-17.009196 530.78156,-25.315716 516.68297,-32.572546 c -16.89081,-8.69403 -34.05359,-13.69074 -54.10729,-15.75259 -6.19363,-0.63681 -20.8843,-0.63867 -27.25208,-0.003 -18.56592,1.85204 -35.0298,6.43495 -50.95473,14.18381 -16.79964,8.17449 -30.35114,18.12353 -43.55205,31.9744096 -21.92561,23.0052004 -35.95691,53.3942104 -39.48544,85.5177804 -0.36956,3.36444 -0.92569,11.77708 -0.94012,14.22135 l -0.005,0.8599 h 37.00103 37.00105 z m -84.47966,3.43958 c 10e-4,-1.41883 0.11919,-4.24656 0.26202,-6.28386 2.40544,-34.30881 14.80643,-65.13417 36.93517,-91.8104104 3.67456,-4.42967 14.85614,-15.6116196 19.28902,-19.2896396 26.79915,-22.2356 57.76447,-34.63089 92.33958,-36.96311 5.67955,-0.38311 20.04079,-0.15211 25.26771,0.40643 15.71062,1.67881 30.16557,5.20933 43.92083,10.72738 5.15927,2.06969 14.62739,6.67285 19.60687,9.53237 38.55948,22.14321 66.4446,59.87185 76.0295,102.86815 2.25158,10.10023 3.82728,22.8972 3.84287,31.20956 l 0.004,2.18282 h 5.30116 5.30119 l -0.15232,-2.4474 c -0.73335,-11.78436 -1.24545,-16.81194 -2.51315,-24.67239 -8.50961,-52.76549 -37.07535,-99.82484 -80.30948,-132.30247 -15.74387,-11.82686 -34.04727,-21.7155 -52.90751,-28.58396 -18.69974,-6.81001 -37.86838,-10.738644 -58.7375,-12.038274 -10.0326,-0.62479 -26.45452,-0.0874 -37.17396,1.21646 -33.70812,4.100124 -66.21423,16.736774 -94.14806,36.599784 -14.62802,10.40159 -28.71034,23.55179 -40.13369,37.47721 -23.92584,29.1663496 -39.48293,64.63421 -44.68037,101.86458 -0.74512,5.33746 -1.39235,11.97152 -1.61332,16.53646 -0.081,1.67349 -0.20736,3.78685 -0.28078,4.69635 l -0.13351,1.65365 h 42.3407 42.3407 l 0.002,-2.57969 z m -95.13502,-0.26458 c 0.38948,-6.58501 0.74644,-11.04257 1.21814,-15.21188 7.75661,-68.55863 47.6533,-129.13233 107.83562,-163.72292 8.39128,-4.82299 20.89935,-10.75494 30.13206,-14.29011 42.62315,-16.320234 90.34504,-18.651824 134.53104,-6.572914 31.66266,8.655484 60.60575,24.247724 85.86687,46.258264 4.06405,3.54109 13.58371,12.92551 17.50787,17.25915 20.30299,22.42158 35.75498,48.8625496 45.19978,77.34447 5.76726,17.39185 9.44084,36.31665 10.45168,53.84271 0.16364,2.83765 0.35777,5.78445 0.43137,6.54843 l 0.13383,1.38907 h 5.4833 5.48328 l -0.0815,-2.57969 c -1.50482,-47.64053 -15.20502,-92.7761404 -40.32892,-132.8645 -17.17273,-27.40128 -39.77653,-51.88628 -65.97655,-71.467434 -13.17692,-9.84805 -25.33672,-17.32903 -40.34896,-24.82356 -29.16981,-14.5624 -59.58803,-23.3096 -92.08836,-26.48135 -9.52336,-0.9294 -14.95369,-1.17576 -25.91581,-1.17576 -13.64511,0 -23.50531,0.64346 -36.16917,2.36034 -47.5663,6.44873 -92.66059,25.98729 -130.43524,56.51528 -19.60589,15.844714 -37.03092,34.707754 -51.84655,56.125224 -11.61581,16.79182 -22.43506,37.6045896 -29.67175,57.07895 -10.19355,27.43146 -15.43518,54.23291 -16.54552,84.60052 l -0.0992,2.71198 h 42.53219 42.53219 z M 308.45563,256.11178 c 32.45582,-1.93397 61.88008,-13.61699 87.1802,-34.6153 6.42178,-5.32987 16.72786,-16.12765 22.25799,-23.3199 16.40658,-21.33764 26.7534,-47.13491 29.71348,-74.08333 0.36957,-3.36444 0.9257,-11.77708 0.94012,-14.22136 l 0.005,-0.85989 h -37.04166 -37.04167 v 3.77031 c -0.005,18.76269 -5.1594,37.65113 -14.63781,53.64427 -15.78197,26.62926 -42.25977,45.08257 -72.48966,50.52055 -6.98814,1.25709 -9.46416,1.44939 -18.70477,1.45269 -9.76968,0.003 -13.44225,-0.33424 -21.45641,-1.97339 -24.02715,-4.91427 -45.92045,-18.3628 -61.36765,-37.69672 -4.69801,-5.88008 -8.42626,-11.78727 -12.02317,-19.05 -3.13097,-6.32193 -5.11665,-11.35888 -6.87746,-17.44565 -2.7473,-9.49687 -4.10032,-18.89691 -4.10591,-28.52571 l -0.004,-4.69635 h -5.59705 -5.59705 l 0.1626,5.35781 c 0.78998,26.03029 9.61229,53.18286 24.60819,75.73698 5.42165,8.15427 11.06109,14.99539 18.56008,22.51498 12.25502,12.28868 24.4981,21.09314 39.69761,28.54809 23.07571,11.31798 48.44801,16.4537 73.81875,14.94192 z m 46.16979,52.55051 c 10.09126,-0.92964 18.43894,-2.21567 27.66687,-4.2623 47.61438,-10.56021 90.27964,-38.11664 119.81229,-77.38382 17.13527,-22.78338 28.96765,-47.84546 35.7259,-75.67084 2.77725,-11.4346 4.77522,-24.97926 5.30788,-35.98333 0.081,-1.67349 0.20736,-3.78685 0.28078,-4.69636 l 0.13351,-1.65364 h -42.34072 -42.34068 v 2.6624 c 0,1.46431 -0.12428,4.4111 -0.27615,6.54843 -2.41438,33.97451 -14.89543,64.90031 -36.85934,91.33084 -3.95748,4.76226 -14.20209,15.06339 -18.91731,19.02163 -18.65617,15.66114 -40.26673,26.83605 -63.18636,32.67393 -23.04027,5.86864 -47.28393,6.54999 -70.3348,1.97678 -41.59854,-8.25302 -78.11726,-32.77539 -101.59982,-68.22443 -13.96268,-21.07792 -22.59802,-44.8855 -25.38357,-69.98229 -0.50112,-4.51493 -0.93303,-10.87673 -0.93855,-13.82448 l -0.004,-2.18281 h -5.31424 -5.31424 l 0.14808,1.91823 c 0.0814,1.05502 0.21805,3.28745 0.30357,4.96094 0.55875,10.93321 2.67938,24.86763 5.56548,36.56999 8.06978,32.72089 23.66031,62.27834 46.37289,87.91646 3.94425,4.45231 12.98727,13.4593 17.37284,17.30367 33.89141,29.70887 75.13529,47.31682 119.32708,50.94341 7.53816,0.61862 7.3914,0.61452 19.18229,0.53665 7.4644,-0.0493 12.46277,-0.20907 15.61042,-0.49906 z m 29.76562,59.63507 c 18.92382,-0.75972 36.52369,-3.23873 54.23958,-7.63987 58.34901,-14.49556 110.46812,-48.94423 146.95104,-97.12883 33.32541,-44.01431 51.92395,-96.74561 53.54211,-151.80468 l 0.0797,-2.71198 h -42.51222 -42.51219 l -0.17341,2.97656 c -0.94326,16.19131 -2.59447,27.86436 -5.86607,41.46934 -15.73229,65.42317 -61.51639,120.18891 -123.26731,147.44898 -19.86436,8.76919 -41.39991,14.58383 -62.88032,16.97781 -9.43062,1.05106 -14.27019,1.30934 -24.56447,1.31104 -9.39411,0.003 -14.32774,-0.22987 -22.225,-1.04241 -44.9381,-4.62357 -86.77256,-22.94588 -121.04687,-53.01512 -4.26314,-3.74009 -13.19685,-12.55442 -17.18501,-16.95537 -21.62259,-23.86057 -37.80746,-52.402 -46.96136,-82.81458 -4.85968,-16.14559 -7.91216,-33.13996 -8.75883,-48.76371 -0.15927,-2.93897 -0.34797,-5.8496 -0.41933,-6.46806 l -0.12977,-1.12448 h -5.50317 -5.50317 l 0.10105,2.57969 c 0.53804,13.73534 1.60075,24.56627 3.55009,36.18177 11.71924,69.83126 51.02501,131.98128 109.3845,172.95796 23.46402,16.4751 50.4407,29.39677 78.05208,37.3865 26.7616,7.74382 55.90217,11.29173 83.60833,10.17944 z"
         style="fill:#ffffff;fill-opacity:1;stroke-width:0.26458332"
         id="path826" />
    </g>
    <g
       aria-label="sinarmas"
       style="font-style:normal;font-variant:normal;font-weight:bold;font-stretch:normal;font-size:272.94500732px;line-height:1.25;font-family:Helvetica;-inkscape-font-specification:'Helvetica Bold';letter-spacing:-11.31887531px;word-spacing:0px;fill:#000000;fill-opacity:1;stroke:none;stroke-width:1.42158842"
       id="text845"
       transform="translate(-68.420999,-363.48656)">
      <path
         style="font-style:normal;font-variant:normal;font-weight:bold;font-stretch:normal;font-family:Arial;-inkscape-font-specification:'Arial Bold';letter-spacing:-11.31887531px;fill:#231f20;fill-opacity:1;stroke-width:0.77186155"
         d="m 199.86431,-531.55956 20.40613,-3.11157 q 1.30252,5.93369 5.28241,9.04525 3.97989,3.0392 11.14372,3.0392 7.88749,0 11.86741,-2.89448 2.67739,-2.02613 2.67739,-5.42715 0,-2.31559 -1.44726,-3.83518 -1.51958,-1.44724 -6.802,-2.6774 -24.60313,-5.42715 -31.18807,-9.9136 -9.11761,-6.22314 -9.11761,-17.2946 0,-9.98596 7.88749,-16.78799 7.88743,-6.80203 24.45833,-6.80203 15.77495,0 23.44528,5.13769 7.6702,5.13772 10.56458,15.19604 l -19.17563,3.54574 q -1.23018,-4.48645 -4.70353,-6.87439 -3.40101,-2.38795 -9.76888,-2.38795 -8.03217,0 -11.50552,2.24322 -2.31559,1.59197 -2.31559,4.12464 0,2.17086 2.02612,3.69046 2.74976,2.02614 18.95882,5.71662 16.28147,3.69052 22.72158,9.04532 6.36767,5.42714 6.36767,15.12365 0,10.56486 -8.82789,18.16287 -8.82816,7.59802 -26.12269,7.59802 -15.70254,0 -24.89253,-6.36786 -9.11761,-6.36786 -11.93973,-17.29452 z"
         id="path923"
         inkscape:connector-curvature="0" />
      <path
         style="font-style:normal;font-variant:normal;font-weight:bold;font-stretch:normal;font-family:Arial;-inkscape-font-specification:'Arial Bold';letter-spacing:-11.31887531px;fill:#231f20;fill-opacity:1;stroke-width:0.7713275"
         d="m 281.61413,-509.75007 v -76.7954 h 20.3197 v 76.7954 z"
         id="path921"
         inkscape:connector-curvature="0" />
      <path
         style="font-style:normal;font-variant:normal;font-weight:bold;font-stretch:normal;font-family:Arial;-inkscape-font-specification:'Arial Bold';letter-spacing:-11.31887531px;fill:#231f20;fill-opacity:1;stroke-width:0.77274287"
         d="m 281.43198,-596.63947 v -18.83555 h 20.35698 v 18.83555 z"
         id="path919"
         inkscape:connector-curvature="0" />
      <path
         style="font-style:normal;font-variant:normal;font-weight:bold;font-stretch:normal;font-family:Arial;-inkscape-font-specification:'Arial Bold';letter-spacing:-11.31887531px;fill:#231f20;fill-opacity:1;stroke-width:0.7704168"
         d="m 385.21528,-509.77554 h -20.29574 v -39.14681 q 0,-12.42305 -1.30003,-16.03438 -1.30012,-3.68356 -4.26134,-5.7059 -2.88918,-2.02234 -7.00608,-2.02234 -5.2725,0 -9.46169,2.88906 -4.18907,2.88906 -5.77808,7.65602 -1.51672,4.76698 -1.51672,17.62336 v 34.74099 h -20.29573 v -76.70472 h 18.85117 v 11.26735 q 10.03951,-13.00078 25.27936,-13.00078 6.71707,0 12.27842,2.4557 5.56145,2.38347 8.37834,6.13926 2.88909,3.75578 3.97248,8.52274 1.15564,4.76695 1.15564,13.65085 z"
         id="path917"
         inkscape:connector-curvature="0" />
      <path
         id="path913"
         style="font-style:normal;font-variant:normal;font-weight:bold;font-stretch:normal;font-family:Arial;-inkscape-font-specification:'Arial Bold';letter-spacing:-11.31887531px;fill:#231f20;fill-opacity:1;stroke-width:0.77711684"
         d="m 413.55475,-563.4006 -18.57797,-3.35132 q 3.13274,-11.21963 10.78251,-16.61088 7.64969,-5.39125 22.73064,-5.39125 13.6967,0 20.39933,3.27846 6.70262,3.20561 9.39829,8.23259 2.7685,4.95413 2.7685,18.28655 l -0.21862,23.89641 q 0,10.19967 0.94714,15.08093 1.0199,4.80841 3.71561,10.34537 h -20.25367 q -0.80138,-2.03994 -1.96712,-6.04694 -0.50992,-1.82137 -0.72848,-2.40421 -5.24551,5.09983 -11.21961,7.64975 -5.97414,2.54992 -12.7496,2.54992 -11.94821,0 -18.86934,-6.48408 -6.84831,-6.48407 -6.84831,-16.39231 0,-6.55692 3.13274,-11.65675 3.13271,-5.17269 8.74253,-7.86831 5.68269,-2.76848 16.31947,-4.80842 14.35232,-2.69567 19.88932,-5.02705 v -2.03993 q 0,-5.90123 -2.91423,-8.37829 -2.91411,-2.54992 -11.00106,-2.54992 -5.46406,0 -8.52398,2.18564 -3.05988,2.11279 -4.95409,7.50404 z m 27.39336,16.61095 q -3.93412,1.31139 -12.45818,3.13276 -8.52397,1.82136 -11.14683,3.56987 -4.00698,2.84134 -4.00698,7.21263 0,4.29842 3.20568,7.43117 3.20557,3.13276 8.1597,3.13276 5.53697,0 10.56392,-3.64274 3.71561,-2.76848 4.88131,-6.77549 0.80138,-2.62276 0.80138,-9.98109 z"
         inkscape:connector-curvature="0" />
      <path
         style="font-style:normal;font-variant:normal;font-weight:bold;font-stretch:normal;font-family:Arial;-inkscape-font-specification:'Arial Bold';letter-spacing:-11.31887531px;fill:#231f20;fill-opacity:1;stroke-width:0.77655679"
         d="m 490.77095,-509.21806 h -20.45737 v -77.31603 h 19.00137 v 10.99314 q 4.87774,-7.78985 8.73623,-10.26512 3.93132,-2.47528 8.88188,-2.47528 6.98901,0 13.46844,3.85853 l -6.33374,17.83655 q -5.16903,-3.34891 -9.60998,-3.34891 -4.29529,0 -7.28019,2.40248 -2.9849,2.32966 -4.73217,8.51786 -1.67447,6.18826 -1.67447,25.91765 z"
         id="path911"
         inkscape:connector-curvature="0" />
      <path
         style="font-style:normal;font-variant:normal;font-weight:bold;font-stretch:normal;font-family:Arial;-inkscape-font-specification:'Arial Bold';letter-spacing:-11.31887531px;fill:#231f20;fill-opacity:1;stroke-width:0.76657635"
         d="m 522.19697,-586.15909 h 18.61345 v 10.42066 q 9.98945,-12.14545 23.78781,-12.14545 7.33041,0 12.72041,3.01839 5.38994,3.0184 8.83954,9.12706 5.03068,-6.10866 10.85185,-9.12706 5.82119,-3.01839 12.43295,-3.01839 8.40835,0 14.22962,3.44959 5.82116,3.37773 8.69581,9.98946 2.08417,4.88692 2.08417,15.81066 v 48.79744 h -20.19452 v -43.62299 q 0,-11.355 -2.08416,-14.66086 -2.80275,-4.31199 -8.62395,-4.31199 -4.24012,0 -7.97715,2.58719 -3.73711,2.5872 -5.39008,7.61786 -1.65295,4.95882 -1.65295,15.73885 v 36.65194 h -20.19451 v -41.82632 q 0,-11.13941 -1.07802,-14.37341 -1.07798,-3.23398 -3.37766,-4.81505 -2.22787,-1.58106 -6.10866,-1.58106 -4.67128,0 -8.40842,2.51532 -3.73699,2.51534 -5.38994,7.25853 -1.58107,4.74321 -1.58107,15.73884 v 37.08315 h -20.19452 z"
         id="path909"
         inkscape:connector-curvature="0" />
      <path
         inkscape:connector-curvature="0"
         d="m 662.83202,-563.4006 -18.57794,-3.35132 q 3.13271,-11.21963 10.78252,-16.61088 7.64969,-5.39125 22.7306,-5.39125 13.69673,0 20.39936,3.27846 6.70262,3.20561 9.3983,8.23259 2.7685,4.95413 2.7685,18.28655 l -0.21867,23.89641 q 0,10.19967 0.94715,15.08093 1.01993,4.80841 3.71564,10.34537 h -20.25367 q -0.80138,-2.03994 -1.96712,-6.04694 -0.50993,-1.82137 -0.72848,-2.40421 -5.24551,5.09983 -11.21961,7.64975 -5.97414,2.54992 -12.74959,2.54992 -11.94821,0 -18.86935,-6.48408 -6.84834,-6.48407 -6.84834,-16.39231 0,-6.55692 3.13274,-11.65675 3.13274,-5.17269 8.74256,-7.86831 5.68265,-2.76848 16.31948,-4.80842 14.35227,-2.69567 19.88927,-5.02705 v -2.03993 q 0,-5.90123 -2.91418,-8.37829 -2.91412,-2.54992 -11.00107,-2.54992 -5.46406,0 -8.52397,2.18564 -3.05992,2.11279 -4.95413,7.50404 z m 27.39335,16.61095 q -3.93412,1.31139 -12.45817,3.13276 -8.52394,1.82136 -11.14679,3.56987 -4.00699,2.84134 -4.00699,7.21263 0,4.29842 3.20564,7.43117 3.20561,3.13276 8.15974,3.13276 5.53696,0 10.56393,-3.64274 3.7156,-2.76848 4.8813,-6.77549 0.80134,-2.62276 0.80134,-9.98109 z"
         style="font-style:normal;font-variant:normal;font-weight:bold;font-stretch:normal;font-family:Arial;-inkscape-font-specification:'Arial Bold';letter-spacing:-11.31887531px;fill:#231f20;fill-opacity:1;stroke-width:0.77711684"
         id="path927" />
      <path
         inkscape:connector-curvature="0"
         id="path929"
         d="m 715.8638,-531.55956 20.40611,-3.11157 q 1.30252,5.93369 5.28244,9.04525 3.97988,3.0392 11.14372,3.0392 7.88747,0 11.86739,-2.89448 2.67741,-2.02613 2.67741,-5.42715 0,-2.31559 -1.44729,-3.83518 -1.51957,-1.44724 -6.80197,-2.6774 -24.60313,-5.42715 -31.18805,-9.9136 -9.11763,-6.22314 -9.11763,-17.2946 0,-9.98596 7.88747,-16.78799 7.88744,-6.80203 24.45833,-6.80203 15.77495,0 23.4453,5.13769 7.6702,5.13772 10.56458,15.19604 l -19.17566,3.54574 q -1.23016,-4.48645 -4.70353,-6.87439 -3.401,-2.38795 -9.76887,-2.38795 -8.03217,0 -11.5055,2.24322 -2.31562,1.59197 -2.31562,4.12464 0,2.17086 2.02612,3.69046 2.74977,2.02614 18.95883,5.71662 16.28148,3.69052 22.72159,9.04532 6.36767,5.42714 6.36767,15.12365 0,10.56486 -8.82786,18.16287 -8.82818,7.59802 -26.12271,7.59802 -15.70255,0 -24.89251,-6.36786 -9.11763,-6.36786 -11.93976,-17.29452 z"
         style="font-style:normal;font-variant:normal;font-weight:bold;font-stretch:normal;font-family:Arial;-inkscape-font-specification:'Arial Bold';letter-spacing:-11.31887531px;fill:#231f20;fill-opacity:1;stroke-width:0.77186155" />
    </g>
  </g>
</svg>
