<?xml version="1.0" encoding="UTF-8" standalone="no"?>
<!DOCTYPE svg PUBLIC "-//W3C//DTD SVG 1.1//EN" "http://www.w3.org/Graphics/SVG/1.1/DTD/svg11.dtd">
<svg width="100%" height="100%" viewBox="0 0 462 300" version="1.1" xmlns="http://www.w3.org/2000/svg" xmlns:xlink="http://www.w3.org/1999/xlink" xml:space="preserve" xmlns:serif="http://www.serif.com/" style="fill-rule:evenodd;clip-rule:evenodd;stroke-linejoin:round;stroke-miterlimit:2;">
    <g id="Layer-1" serif:id="Layer 1" transform="matrix(0.901641,0,0,0.902024,317.286684,132.074254)">
        <path id="path2359" d="M14.811,50.317C13.716,50.162 10.431,49.712 7.51,49.318C-4.707,47.666 -14.873,42.89 -21.067,35.89C-25.061,31.376 -30.194,20.772 -32.25,12.784C-36.423,-3.428 -37.286,-17.316 -37.289,-68.273L-37.291,-107.937L-6.926,-107.764L23.44,-107.592L23.828,-66.441C23.933,-55.309 24.018,-51.409 24.139,-44.979C24.327,-29.046 25.419,-4.132 41.31,2.18C49.546,5.261 61.788,5.586 69.481,2.938C84.95,-2.386 96.886,-21.3 99.391,-43.764C99.786,-47.308 100.101,-62.927 100.101,-79.025L100.101,-107.924L160.5,-107.924L160.5,50.507L156.683,49.938C140.073,47.463 128.521,39.227 117.161,21.764C114.049,16.979 110.689,12.424 109.694,11.642C105.795,8.575 101.761,10.598 95.719,18.65C83.226,35.299 66.852,45.295 45.847,49.096C40.299,50.1 19.151,50.932 14.811,50.317L14.811,50.317Z" style="fill:rgb(48,207,210);fill-rule:nonzero;"/>
        <rect id="path2357" x="-121.585" y="-146.42" width="60.399" height="197.127" style="fill:rgb(48,207,210);fill-rule:nonzero;"/>
        <path id="path2353" d="M-351.558,50.163C-351.746,49.976 -351.899,5.668 -351.899,-48.299L-351.899,-146.42L-290.836,-146.42L-290.836,-114.356C-290.836,-79.445 -290.832,-79.404 -287.312,-80.288C-286.355,-80.528 -283.397,-82.677 -280.737,-85.063C-267.918,-96.566 -249.963,-105.351 -233.423,-108.213C-225.643,-109.56 -210.506,-109.565 -202.816,-108.224C-171.448,-102.754 -150.276,-81.336 -143.714,-48.436C-141.907,-39.374 -142.095,-19.649 -144.078,-10.355C-149.671,15.863 -163.361,34.214 -184.523,43.858C-210.067,55.499 -247.817,51.744 -270.062,35.35C-275.795,31.125 -279.813,27.177 -285.208,20.47C-296.564,6.351 -298.235,6.517 -308.875,22.831C-314.506,31.465 -318.38,35.995 -323.488,39.922C-327.763,43.208 -335.011,46.898 -339.952,48.304C-344.353,49.557 -351.086,50.635 -351.558,50.163L-351.558,50.163ZM-200.37,-25.206C-198.978,-34.871 -201.627,-43.754 -207.703,-49.792C-211.414,-53.48 -219.409,-57.58 -226.122,-59.239C-242,-61.567 -260.994,-61.039 -273.3,-50.06C-276.219,-47.369 -278.327,-43.838 -279.624,-39.919C-282.968,-29.811 -280.908,-17.126 -273.422,-9.639C-268.737,-5.676 -263.854,-3.034 -258.808,-1.339C-252.36,0.827 -245.644,1.449 -238.733,1.309C-220.547,1.934 -202.928,-9.648 -200.37,-25.206Z" style="fill:rgb(48,207,210);fill-rule:nonzero;"/>
        <g id="g64" transform="matrix(0.244128,0,0,0.244128,-351.87773,103.45663)">
            <path id="path20" d="M147.347,237.883C147.347,225.392 147.482,192.005 147.174,187.891C147.443,138.209 111.32,103.163 88.5,105.895C72.709,107.266 59.474,113.705 52.369,132.228C45.783,149.491 51.671,172.453 73.567,177.841C96.981,183.627 110.653,188.442 120.548,195.234C132.672,203.549 142.569,219.436 142.832,237.903" style="fill:rgb(0,96,175);fill-rule:nonzero;"/>
            <path id="path22" d="M156.693,313.403C115.409,313.403 72.98,303.235 30.607,283.123L29.568,282.612L29.07,281.553C10.056,241.415 0,197.514 0,154.563C0,111.676 9.643,69.654 28.672,29.57L29.195,28.505L30.254,27.974C69.451,9.406 111.617,-0 155.619,-0C196.61,-0 240.387,10.471 282.197,30.333L283.27,30.811L283.765,31.896C303.144,72.773 313.364,116.663 313.364,158.903C313.364,200.978 303.551,243.037 284.149,283.889L283.638,284.963L282.558,285.46C243.961,303.732 200.433,313.403 156.693,313.403M34.529,277.62C75.692,296.982 116.745,306.761 156.693,306.761C199.051,306.761 241.178,297.502 278.676,279.951C297.304,240.364 306.746,199.622 306.746,158.903C306.746,118.019 296.892,75.491 278.25,35.817C237.674,16.743 195.299,6.628 155.619,6.628C113.018,6.628 72.186,15.664 34.173,33.489C15.927,72.341 6.64,113.052 6.64,154.563C6.64,196.152 16.291,238.697 34.529,277.62" style="fill:rgb(0,96,175);fill-rule:nonzero;"/>
            <path id="path24" d="M137.562,237.903C137.639,221.892 128.702,207.734 117.022,200.125C106.661,193.4 92.752,188.981 70.313,183.291C63.376,181.517 56.121,177.576 53.874,172.552C47.933,178.539 46.853,191.999 47.899,199.865C49.114,208.968 59.751,223.971 75.768,224.559C85.55,224.951 97.917,222.454 103.847,221.194C114.078,218.984 130.264,225.392 132.841,237.883" style="fill:rgb(0,96,175);fill-rule:nonzero;"/>
            <path id="path26" d="M155.619,28.466C128.462,28.466 105.003,46.376 105.087,77.367C105.172,103.429 126.131,117.381 133.61,127.346C144.911,142.363 151.028,160.137 151.664,187.334C152.158,208.98 152.133,230.354 152.243,237.928L158.239,237.928C158.134,230.003 157.863,207.313 158.173,186.665C158.58,159.459 164.918,142.363 176.225,127.346C183.769,117.381 204.71,103.429 204.756,77.367C204.857,46.376 181.412,28.466 154.277,28.466" style="fill:rgb(0,96,175);fill-rule:nonzero;"/>
            <path id="path28" d="M162.513,237.883C162.513,225.392 162.372,192.005 162.674,187.891C162.409,138.209 198.509,103.163 221.349,105.895C237.14,107.266 250.36,113.705 257.486,132.228C264.066,149.491 258.144,172.453 236.273,177.841C212.848,183.627 199.192,188.442 189.273,195.234C177.163,203.549 167.958,219.436 167.675,237.903" style="fill:rgb(0,96,175);fill-rule:nonzero;"/>
            <path id="path30" d="M172.292,237.903C172.207,221.892 181.141,207.734 192.787,200.125C203.19,193.4 217.117,188.981 239.536,183.291C246.487,181.517 253.734,177.576 255.94,172.552C261.91,178.539 262.987,191.999 261.941,199.865C260.701,208.968 250.092,223.971 234.103,224.559C224.324,224.951 211.893,222.454 205.988,221.194C195.796,218.984 179.565,225.392 176.976,237.883" style="fill:rgb(0,96,175);fill-rule:nonzero;"/>
            <path id="path32" d="M180.669,289.593L177.194,264.236L185.583,262.964C187.625,262.685 190.112,263.04 191.106,264.32C192.205,265.657 192.542,266.762 192.753,268.513C193.07,270.68 192.443,273.187 190.002,274.435L190.002,274.511C192.728,274.511 194.375,276.469 194.853,279.775C194.923,280.473 195.13,282.16 194.923,283.567C194.37,286.915 192.372,287.991 189.001,288.463L180.669,289.593ZM186.069,285.053C187.063,284.911 188.072,284.858 188.86,284.355C190.067,283.567 189.956,281.88 189.79,280.629C189.369,277.877 188.651,276.831 185.732,277.264L183.899,277.546L185.06,285.194L186.069,285.053ZM184.311,273.336C185.422,273.156 186.927,273.023 187.555,271.969C187.882,271.265 188.303,270.706 188.027,269.14C187.685,267.284 187.069,266.134 184.712,266.581L182.517,266.934L183.382,273.432" style="fill:rgb(0,96,175);fill-rule:nonzero;"/>
            <path id="path34" d="M217.007,274.342C217.072,274.814 217.148,275.339 217.176,275.811C217.854,280.436 217.007,284.265 211.808,285.319C204.123,286.799 202.651,282.024 201.297,275.339L200.577,271.723C199.517,265.326 199.063,260.484 206.555,258.992C210.779,258.22 213.571,259.901 214.732,264.106C214.913,264.733 215.139,265.355 215.224,265.985L210.627,266.934C210.096,265.355 209.392,262.532 207.324,262.769C203.611,263.216 204.838,267.835 205.219,269.765L206.601,276.707C207.016,278.806 207.841,282.16 211.053,281.513C213.661,280.99 212.525,276.927 212.294,275.263" style="fill:rgb(0,96,175);fill-rule:nonzero;"/>
            <path id="path36" d="M224.384,282.016L222.793,255.774L228.969,253.889L241.918,276.713L237.055,278.168L233.987,272.367L228.588,273.989L229.286,280.583L224.384,282.016ZM228.136,269.751L232.038,268.621L226.856,258.003" style="fill:rgb(0,96,175);fill-rule:nonzero;"/>
            <path id="path38" d="M71.835,262.176C73.768,255.988 75.5,251.434 82.874,253.457C86.821,254.559 89.268,256.299 89.152,260.885C89.133,261.905 88.796,262.944 88.576,263.953L83.985,262.685C84.586,260.153 84.968,258.144 81.849,257.184C78.243,256.195 77.365,260.566 76.867,262.453L75,269.333C74.407,271.375 73.695,274.752 76.867,275.622C79.489,276.328 81.08,273.754 82.029,269.997L78.817,269.146L79.927,265.165L87.48,267.595L83.894,280.855L80.419,279.911L81.202,277.108L81.103,277.108C79.503,279.4 77.551,279.64 75.842,279.312C68.29,277.269 69.078,272.333 70.88,265.739" style="fill:rgb(0,96,175);fill-rule:nonzero;"/>
            <path id="path40" d="M99.945,273.376L97.671,284.163L92.551,283.056L98.007,257.867L106.735,259.839C111.843,260.941 113.386,263.216 112.662,267.897C112.25,270.584 110.925,273.48 107.69,273.246L107.656,273.202C110.391,274.16 110.622,275.538 110.145,277.923C109.939,278.937 108.517,285.094 109.498,286.088L109.532,286.843L104.234,285.461C104.014,283.755 104.762,280.686 105.059,278.988C105.359,277.485 105.836,275.366 104.31,274.569C103.115,273.934 102.672,273.965 101.321,273.654L99.945,273.376ZM100.818,269.474L104.265,270.403C106.359,270.706 107.523,269.621 107.935,267.092C108.308,264.772 107.825,263.866 105.946,263.416L102.251,262.668" style="fill:rgb(0,96,175);fill-rule:nonzero;"/>
            <path id="path42" d="M132.782,263.495L137.845,264.083L135.664,281.79C134.604,287.404 132.434,289.859 126.258,289.091C119.974,288.297 118.483,285.435 118.864,279.775L121.059,262.083L126.162,262.668L123.972,279.965C123.741,281.843 123.305,284.626 126.648,284.963C129.612,285.189 130.284,283.225 130.618,280.784" style="fill:rgb(0,96,175);fill-rule:nonzero;"/>
            <path id="path44" d="M143.428,290.06L144.951,264.739L154.679,265.16C159.275,265.386 160.479,269.14 160.335,272.723C160.202,274.901 159.521,277.334 157.623,278.654C156.066,279.775 154.065,280.041 152.209,279.951L149.039,279.775L148.406,290.387L143.428,290.06ZM149.183,275.913L151.76,276.057C153.854,276.133 155.241,275.306 155.422,272.232C155.523,269.279 154.407,268.779 151.695,268.66L149.652,268.59" style="fill:rgb(0,96,175);fill-rule:nonzero;"/>
            <path id="path46" d="M829.522,52.939L790.859,123.113C776.266,111.264 758.446,102.542 735.711,102.542C681.907,102.542 660.052,142.648 660.052,170.899C660.052,191.869 673.784,222.81 721.657,222.81C741.751,222.81 770.319,208.83 778.541,202.47L740.302,283.883C722.075,287.52 716.088,289.774 700.659,290.252C614.973,292.809 580.348,240.172 580.374,186.385C580.43,115.281 643.648,28.808 748.447,28.808C754.87,28.808 762.724,31.028 769.44,33.489L776.227,24.81" style="fill:rgb(0,96,175);fill-rule:nonzero;"/>
            <path id="path48" d="M989.052,27.011L1000,282.064L918.522,282.064L918.473,238.321L862.915,238.321L844.629,282.064L756.265,282.064L848.647,99.934L827.815,99.798L867.396,27.011L989.052,27.011ZM917.945,105.037L886.533,179.223L918.892,179.223" style="fill:rgb(0,96,175);fill-rule:nonzero;"/>
            <path id="path50" d="M528.935,27.011C569.284,27.237 592.085,49.139 592.085,80.778C592.085,109.944 568.038,135.763 541.641,149.113C568.818,159.103 571.169,183.627 571.169,200.978C571.169,242.896 529.107,282.064 474.433,282.064L355.196,282.064L401.708,102.471L382.602,102.361L421.658,27.011C421.658,27.011 496.124,26.785 528.935,27.011M489.348,130.42C497.695,130.42 512.432,128.306 516.116,112.154C520.153,94.619 506.323,94.147 499.689,94.147L475.984,94.044L467.717,130.421L489.348,130.42ZM455.834,175.49L444.919,217.408L472.831,217.408C483.813,217.408 498.779,211.958 502.447,198.317C506.069,184.636 495.607,175.49 484.664,175.49" style="fill:rgb(0,96,175);fill-rule:nonzero;"/>
        </g>
        <path id="path138" d="M32.321,122.355C32.321,122.233 34.218,110.898 34.328,110.363L34.386,110.081L43.086,110.081C47.871,110.081 51.786,110.106 51.786,110.138C51.786,110.169 51.325,112.914 50.761,116.238C50.198,119.562 49.737,122.326 49.737,122.379C49.737,122.44 46.482,122.477 41.029,122.477C34.354,122.477 32.321,122.448 32.321,122.355Z" style="fill:rgb(0,166,181);fill-rule:nonzero;"/>
        <path id="path136" d="M-43.321,122.175C-43.287,122.009 -42.814,119.231 -42.268,116.002L-41.276,110.132L-23.824,110.08L-23.879,110.362C-23.91,110.517 -24.383,113.295 -24.931,116.535L-25.927,122.426L-43.381,122.478L-43.321,122.175Z" style="fill:rgb(0,166,181);fill-rule:nonzero;"/>
        <path id="path124" d="M132.542,171.523C132.571,171.396 134.961,157.888 137.854,141.506L143.114,111.72L160.378,111.72L160.378,112.189C160.378,112.546 150.546,168.579 150.021,171.215L149.914,171.753L132.49,171.753L132.542,171.523Z" style="fill:rgb(0,166,181);fill-rule:nonzero;"/>
        <path id="path122" d="M23.613,171.635C23.613,171.431 31.211,128.167 31.261,128.086C31.287,128.044 35.201,128.009 39.959,128.009C47.993,128.009 48.61,128.021 48.61,128.181C48.61,128.303 42.714,162.088 41.065,171.42L41.006,171.753L32.31,171.753C25.814,171.753 23.613,171.723 23.613,171.635L23.613,171.635Z" style="fill:rgb(0,166,181);fill-rule:nonzero;"/>
        <path id="path120" d="M-52.035,171.574C-52.013,171.476 -50.31,161.76 -48.251,149.984C-46.193,138.207 -44.483,128.446 -44.451,128.291L-44.394,128.009L-35.695,128.009C-28.8,128.009 -26.996,128.036 -27,128.137C-27.003,128.207 -28.721,138.038 -30.818,149.984L-34.631,171.702L-43.353,171.728C-51.625,171.753 -52.073,171.745 -52.035,171.574L-52.035,171.574Z" style="fill:rgb(0,166,181);fill-rule:nonzero;"/>
        <path id="path118" d="M61.63,172.059C59.151,171.887 57.204,171.554 55.834,171.066C53.535,170.246 52.184,168.659 51.669,166.17C51.481,165.26 51.463,164.91 51.513,163.045C51.569,160.962 51.749,159.374 52.188,157.103C52.302,156.512 53.065,152.109 53.884,147.32C54.702,142.531 55.396,138.508 55.425,138.382L55.478,138.151L52.351,138.151C49.439,138.151 49.225,138.139 49.23,137.972C49.234,137.873 49.617,135.603 50.082,132.926L50.927,128.06L57.385,128.006L58.024,124.448C58.375,122.49 58.921,119.448 59.237,117.688L59.812,114.486L68.348,114.486C73.043,114.486 76.882,114.521 76.879,114.563C76.877,114.605 76.334,117.636 75.674,121.299L74.474,127.958L82.842,128.011L82.784,128.292C82.753,128.446 82.379,130.601 81.955,133.08C81.53,135.559 81.157,137.714 81.126,137.869L81.069,138.151L76.877,138.151C74.376,138.151 72.684,138.189 72.684,138.246C72.684,138.298 72.012,142.136 71.19,146.774C69.606,155.715 69.457,156.718 69.619,157.33C69.772,157.911 70.316,158.557 70.878,158.826C71.938,159.334 72.757,159.46 75.008,159.46L77.094,159.46L77.04,159.69C77.01,159.817 76.596,162.456 76.119,165.555C75.642,168.654 75.227,171.331 75.196,171.504L75.141,171.817L72.043,171.947C67.945,172.117 63.207,172.169 61.63,172.059L61.63,172.059Z" style="fill:rgb(0,166,181);fill-rule:nonzero;"/>
        <path id="path108" d="M84.552,171.219C83.194,170.54 83.012,170.414 82.15,169.557C81.174,168.585 80.613,167.742 80.131,166.524C79.55,165.055 79.435,163.921 79.609,161.406C79.789,158.82 80.131,157.518 81.144,155.567C81.75,154.401 82.304,153.681 83.619,152.354C86.08,149.871 88.703,148.341 92.258,147.318C93.755,146.887 99.001,146.003 103.505,145.423C108.565,144.771 111.343,144.242 112.402,143.727C113.106,143.385 113.894,142.513 114.178,141.762C114.618,140.596 114.277,139.178 113.393,138.504C112.93,138.151 111.477,137.717 110.133,137.53C108.757,137.339 106.484,137.72 105.091,138.375C104.309,138.743 103.368,139.703 102.966,140.545C102.774,140.947 102.592,141.356 102.56,141.455C102.506,141.624 102.01,141.634 94.05,141.634L85.598,141.634L85.658,141.301C86.517,136.521 89.314,132.767 93.788,130.39C97.755,128.282 102.944,127.24 110.538,127.028C116.867,126.851 122.789,127.697 126.17,129.26C128.092,130.149 129.653,131.489 130.378,132.875C131.134,134.319 131.591,136.498 131.591,138.666C131.591,140.209 131.487,141.441 131.172,143.632C130.956,145.132 127.209,166.305 127.139,166.418C127.117,166.454 127.047,166.861 126.984,167.324C126.779,168.817 127.209,170.15 128.185,171.049C128.631,171.46 128.641,171.483 128.555,171.889L128.466,172.306L126.981,172.275C126.164,172.257 122.13,172.144 118.017,172.024L110.538,171.804L110.483,167.147L109.845,167.665C106.993,169.98 103.323,171.723 99.73,172.467C94.411,173.439 88.976,173.402 84.552,171.219L84.552,171.219ZM103.828,163.347C104.83,163.186 106.101,162.714 107.025,162.159C109.871,160.449 111.465,157.535 112.071,152.929C112.103,152.689 112.106,152.493 112.079,152.493C112.052,152.493 111.694,152.626 111.284,152.788C109.748,153.396 107.868,153.942 106.147,154.282C103.281,154.848 101.356,155.414 100.045,156.076C99.296,156.453 98.47,157.34 98.061,158.204C97.776,158.806 97.728,159.026 97.698,159.89C97.665,160.817 97.682,160.917 97.949,161.409C98.274,162.006 98.626,162.335 99.314,162.683C100.578,163.324 102.349,163.584 103.828,163.347L103.828,163.347Z" style="fill:rgb(0,166,181);fill-rule:nonzero;"/>
        <path id="path152" d="M-11.833,186.094C-16.15,185.738 -19.496,184.99 -21.967,183.829C-24.141,182.807 -26.175,181.173 -27.352,179.504C-28.261,178.214 -28.949,176.266 -29.094,174.57C-29.129,174.16 -29.112,173.789 -29.055,173.704C-28.967,173.574 -27.896,173.584 -20.573,173.785C-15.963,173.912 -11.999,174.039 -11.764,174.067C-11.353,174.118 -11.335,174.135 -11.269,174.55C-11.113,175.533 -10.695,176.054 -9.627,176.595C-8.821,177.003 -8.011,177.118 -6.421,177.05C-4.366,176.961 -2.915,176.48 -1.621,175.457C-0.249,174.372 1.306,171.236 1.544,169.074C1.583,168.716 1.766,167.64 1.95,166.682C2.134,165.724 2.275,164.931 2.264,164.918C2.253,164.906 1.9,165.152 1.48,165.465C-1.638,167.786 -5.11,169.143 -8.839,169.498C-10.156,169.623 -13.164,169.539 -14.447,169.342C-17.645,168.849 -20.783,167.245 -22.916,165.013C-25.784,162.01 -27.368,157.439 -27.147,152.801C-26.938,148.399 -26.183,145.146 -24.46,141.224C-23.114,138.162 -21.319,135.405 -19.272,133.257C-15.82,129.636 -11.63,127.506 -6.403,126.714C-4.636,126.447 -1.955,126.468 -0.596,126.761C3.229,127.585 6.3,129.579 8.151,132.442C8.672,133.247 8.755,133.333 8.803,133.12C8.834,132.985 9.045,131.838 9.272,130.57C9.499,129.302 9.711,128.138 9.742,127.983L9.799,127.702L25.154,127.702L25.1,127.932C25.07,128.059 23.639,136.069 21.921,145.732C18.196,166.682 18.4,165.583 17.776,168.014C16.259,173.927 15.054,176.482 12.341,179.535C10.618,181.473 7.812,183.338 5.275,184.229C3.53,184.842 0.155,185.527 -2.971,185.903C-4.941,186.14 -9.966,186.248 -11.833,186.094L-11.833,186.094ZM-1.505,157.406C-0.216,157.083 0.904,156.46 1.796,155.569C3.473,153.896 4.738,151.44 5.213,148.937C5.459,147.636 5.535,144.812 5.347,143.939C4.969,142.189 4.294,141.051 3.15,140.234C2.004,139.416 1.322,139.223 -0.359,139.242C-3.303,139.275 -5.064,140.196 -6.591,142.505C-7.776,144.295 -8.485,146.126 -8.929,148.544C-9.159,149.797 -9.187,150.175 -9.144,151.469C-9.103,152.702 -9.05,153.094 -8.828,153.774C-8.141,155.886 -6.62,157.232 -4.481,157.618C-3.81,157.74 -2.446,157.642 -1.505,157.406Z" style="fill:rgb(0,166,181);fill-rule:nonzero;"/>
        <path id="path112" d="M-89.724,172.824C-95.696,172.011 -99.803,168.716 -101.911,163.045C-102.977,160.18 -103.2,157.294 -102.747,152.206C-102.533,149.793 -101.743,146.738 -100.465,143.376C-99.493,140.819 -98.887,139.624 -97.426,137.383C-93.698,131.662 -88.971,128.238 -83.073,126.984C-79.489,126.222 -74.207,126.941 -71.491,128.56C-70.484,129.161 -69.102,130.408 -68.363,131.385C-68.084,131.754 -67.825,132.046 -67.789,132.034C-67.753,132.022 -66.912,127.412 -65.92,121.789L-64.117,111.566L-46.66,111.514L-46.713,111.745C-46.742,111.872 -49.12,125.345 -51.997,141.685C-54.873,158.025 -57.251,171.475 -57.28,171.574C-57.329,171.743 -57.794,171.753 -65.165,171.753L-72.997,171.753L-72.945,171.523C-72.916,171.396 -72.705,170.209 -72.475,168.885C-72.245,167.561 -72.031,166.362 -71.998,166.221C-71.956,166.033 -72.306,166.323 -73.312,167.305C-75.409,169.355 -77.825,171.043 -79.695,171.764C-80.793,172.187 -82.535,172.63 -83.865,172.824C-85.204,173.019 -88.294,173.019 -89.724,172.824L-89.724,172.824ZM-77.938,160.382C-75.994,159.918 -74.442,158.898 -73.185,157.257C-72.569,156.453 -71.906,155.365 -71.55,154.572C-70.301,151.795 -69.715,147.147 -70.312,144.759C-70.641,143.44 -71.168,142.427 -71.913,141.678C-73.016,140.57 -74.308,140.149 -76.314,140.243C-78.408,140.342 -79.8,140.916 -81.417,142.347C-82.287,143.116 -83.621,145.326 -84.298,147.117C-85.063,149.145 -85.543,152.218 -85.463,154.588C-85.406,156.32 -85.221,157.14 -84.623,158.328C-84.089,159.389 -82.996,160.21 -81.666,160.55C-80.958,160.732 -79.038,160.645 -77.938,160.382Z" style="fill:rgb(0,166,181);fill-rule:nonzero;"/>
    </g>
</svg>
