<?xml version="1.0" encoding="UTF-8"?>
<svg version="1.1" xmlns="http://www.w3.org/2000/svg" width="893" height="256">
<path d="M0 0 C0.71445282 0.00304138 1.42890564 0.00608276 2.16500854 0.00921631 C39.38045422 0.24235359 69.79686662 15.57022014 95.9296875 41.609375 C118.87913811 66.12565557 129.97962831 100.23777005 129.02734375 133.44140625 C127.70412589 161.55841316 117.9337688 188.77789575 99.75 210.4375 C98.67298828 211.72333984 98.67298828 211.72333984 97.57421875 213.03515625 C76.81594998 236.89057347 48.30583474 252.72063596 16.75 256.4375 C11.39296514 256.75413934 6.05150635 256.82833634 0.6875 256.8125 C-0.40307709 256.81118576 -0.40307709 256.81118576 -1.51568604 256.80984497 C-13.15903145 256.76365264 -24.09723711 255.96790722 -35.25 252.4375 C-36.02939941 252.19612305 -36.80879883 251.95474609 -37.61181641 251.70605469 C-69.82728273 241.45128162 -97.49480813 219.35973917 -113.38867188 189.28271484 C-122.93891716 170.03326768 -127.69090863 150.44950221 -127.625 128.9375 C-127.62412384 128.23573639 -127.62324768 127.53397278 -127.62234497 126.8109436 C-127.49507521 95.79191285 -117.06247617 68.23759023 -97.25 44.4375 C-96.50878906 43.54289062 -95.76757812 42.64828125 -95.00390625 41.7265625 C-71.38319745 14.35853983 -35.76884764 -0.32614855 0 0 Z " fill="#008CEB" transform="translate(127.25,-0.4375)"/>
<path d="M0 0 C1.4682019 0.00543823 1.4682019 0.00543823 2.96606445 0.01098633 C12.6786673 0.30588572 22.69439617 2.79169364 29.78924561 9.83647156 C32.08011921 13.39432539 32.1629385 16.23088739 32.07910156 20.32348633 C32.07968567 21.07524139 32.08026978 21.82699646 32.08087158 22.60153198 C32.0780953 25.07467587 32.04702675 27.54659917 32.015625 30.01953125 C32.00816094 31.7387374 32.00246879 33.45795209 31.99847412 35.1771698 C31.98323066 39.69338637 31.94396023 44.20908512 31.8996582 48.72509766 C31.85867754 53.33684281 31.84045715 57.94867196 31.8203125 62.56054688 C31.77746451 71.60309159 31.70922897 80.64525267 31.625 89.6875 C28.40336887 89.08568942 25.90208601 88.45145568 23.0625 86.8125 C4.11600093 77.10905936 -16.40560585 82.58204313 -35.52734375 88.6953125 C-38.04277459 89.57174519 -40.48335952 90.52962696 -42.9375 91.5625 C-48.04135553 93.67647316 -53.28017536 95.2757422 -58.5625 96.875 C-59.41851807 97.13716309 -60.27453613 97.39932617 -61.15649414 97.66943359 C-76.08790478 102.11968197 -93.91268975 103.31162148 -108.375 96.6875 C-111.62521794 94.84515988 -114.65510009 93.12729983 -116.375 89.6875 C-116.46775395 87.27655638 -116.50084719 84.89481681 -116.48852539 82.48388672 C-116.48867142 81.7423233 -116.48881744 81.00075989 -116.4889679 80.23672485 C-116.48827 77.78018287 -116.48048334 75.32371627 -116.47265625 72.8671875 C-116.47079163 71.1661076 -116.46936794 69.46502716 -116.46836853 67.76394653 C-116.46454678 63.28243533 -116.4547194 58.80095643 -116.44366455 54.31945801 C-116.43344308 49.7481327 -116.42886933 45.17680219 -116.42382812 40.60546875 C-116.41309685 31.63279829 -116.39602451 22.66015183 -116.375 13.6875 C-112.23428523 14.31388937 -109.11982408 15.11374682 -105.4375 17.125 C-92.85408705 23.58473425 -78.50051712 23.04581259 -65.07397461 18.99291992 C-58.80579308 16.92304342 -52.62324882 14.61457803 -46.4375 12.3125 C-12.81161037 -0.09575195 -12.81161037 -0.09575195 0 0 Z " fill="#FDFDFD" transform="translate(170.375,77.3125)"/>
<path d="M0 0 C12.17851161 9.09956423 19.68361688 21.82667806 22.57810974 36.70697021 C23.52952299 44.1331482 23.23993975 51.65906055 23.1953125 59.1328125 C23.19157639 60.97939907 23.18873224 62.82598763 23.18673706 64.6725769 C23.1791477 69.50253903 23.1595402 74.33237842 23.1373291 79.16229248 C23.11676882 84.10296977 23.10771369 89.04366714 23.09765625 93.984375 C23.07628935 103.65630355 23.04221095 113.32814151 23 123 C19.03069011 123.02465881 15.06140966 123.04284023 11.09204102 123.05493164 C9.74079614 123.05997057 8.38955674 123.06680177 7.03833008 123.07543945 C5.09979566 123.08752419 3.161222 123.09269828 1.22265625 123.09765625 C0.05484619 123.10289307 -1.11296387 123.10812988 -2.31616211 123.11352539 C-5 123 -5 123 -6 122 C-6 113.09 -6 104.18 -6 95 C-23.82 95 -41.64 95 -60 95 C-60 104.24 -60 113.48 -60 123 C-69.57 123 -79.14 123 -89 123 C-89.04536003 112.77654739 -89.08197865 102.55316268 -89.10362434 92.32963181 C-89.11401826 87.58136985 -89.12809632 82.8331809 -89.15087891 78.08496094 C-89.17276508 73.49432924 -89.18460157 68.90376734 -89.18975449 64.31308746 C-89.19342213 62.57019199 -89.2005833 60.82729991 -89.21146011 59.08443451 C-89.32478675 40.15577305 -87.23313568 24.27143082 -75 9 C-74.50113281 8.37480469 -74.00226562 7.74960938 -73.48828125 7.10546875 C-55.11012686 -13.40214433 -22.02363502 -15.12593057 0 0 Z M-53.625 28.625 C-62.32281924 40.98505892 -60 49.01820736 -60 65 C-41.85 65 -23.7 65 -5 65 C-4.28622687 44.34631417 -4.28622687 44.34631417 -13 27 C-18.98268736 21.64765124 -25.03340073 19.52836162 -32.9375 18.6875 C-41.12927358 19.52339526 -47.80106137 22.80106137 -53.625 28.625 Z " fill="#008CEA" transform="translate(870,72)"/>
<path d="M0 0 C2.50875572 2.20455031 4.88802036 4.47967955 7.234375 6.85546875 C7.80929687 7.40847656 8.38421875 7.96148437 8.9765625 8.53125 C19.50561691 19.52401924 22.42107907 35.46676617 22.34790039 50.10742188 C22.34804642 50.88887573 22.34819244 51.67032959 22.3483429 52.47546387 C22.34765255 55.02924486 22.33990175 57.58295067 22.33203125 60.13671875 C22.33016395 61.91890422 22.32874152 63.7010902 22.32774353 65.48327637 C22.32394296 70.15211427 22.31413391 74.82092059 22.30303955 79.48974609 C22.29277231 84.26269097 22.28823457 89.03564099 22.28320312 93.80859375 C22.27250923 103.15756812 22.25493259 112.50651086 22.234375 121.85546875 C12.664375 121.85546875 3.094375 121.85546875 -6.765625 121.85546875 C-6.765625 112.61546875 -6.765625 103.37546875 -6.765625 93.85546875 C-24.585625 94.18546875 -42.405625 94.51546875 -60.765625 94.85546875 C-61.095625 103.76546875 -61.425625 112.67546875 -61.765625 121.85546875 C-71.005625 121.85546875 -80.245625 121.85546875 -89.765625 121.85546875 C-89.83367875 111.12775555 -89.88860054 100.40018813 -89.92106152 89.67230701 C-89.93664917 84.68974025 -89.95775986 79.70733015 -89.99194336 74.72485352 C-90.02478484 69.90727406 -90.04252976 65.08984433 -90.05025673 60.27216148 C-90.05575609 58.44355606 -90.06649363 56.61495786 -90.08281517 54.78641701 C-90.24634165 35.68882993 -87.70456878 19.29580139 -73.91796875 4.84765625 C-53.57199281 -13.9843723 -22.45891258 -17.41517374 0 0 Z M-53.765625 25.85546875 C-63.04349345 37.89741349 -61.765625 48.39229008 -61.765625 63.85546875 C-43.615625 63.85546875 -25.465625 63.85546875 -6.765625 63.85546875 C-5.81589704 41.95477107 -5.81589704 41.95477107 -15.859375 24.546875 C-26.47599536 15.12679997 -43.74009632 15.60932942 -53.765625 25.85546875 Z " fill="#008CEA" transform="translate(552.765625,73.14453125)"/>
<path d="M0 0 C1.05587814 -0.01283524 2.11175629 -0.02567047 3.19963074 -0.03889465 C4.35360855 -0.04628159 5.50758636 -0.05366852 6.6965332 -0.0612793 C7.8826973 -0.06935104 9.06886139 -0.07742279 10.29096985 -0.08573914 C12.81554696 -0.09961106 15.34014306 -0.11031921 17.86474609 -0.11816406 C21.68600605 -0.13522433 25.50636615 -0.17906467 29.32739258 -0.22338867 C53.33090776 -0.37817882 53.33090776 -0.37817882 64.05981445 4.17700195 C65.10045044 4.60082153 65.10045044 4.60082153 66.16210938 5.03320312 C84.97701183 13.4328532 95.72856992 27.96405026 103.0559082 46.7277832 C108.76438343 63.41619643 105.74128188 81.14088414 98.8527832 96.9465332 C91.08648173 112.5910425 77.59845483 123.15676968 61.80981445 129.95043945 C52.04042232 133.1458448 42.45075719 133.46733592 32.26513672 133.3828125 C30.02535316 133.36472834 27.7859912 133.36230261 25.54614258 133.36254883 C15.021 133.32767408 4.56427411 132.79460923 -5.94018555 132.17700195 C-5.96351417 115.11399609 -5.98116454 98.05099518 -5.99199772 80.98797703 C-5.99716075 73.0658725 -6.00420359 65.14377787 -6.015625 57.22167969 C-6.02557161 50.31925559 -6.03203892 43.41683864 -6.03427404 36.51440758 C-6.03558119 32.85739534 -6.03866729 29.20040359 -6.0459156 25.5433979 C-6.05392902 21.46756189 -6.0541767 17.39176182 -6.05371094 13.31591797 C-6.05730621 12.0945665 -6.06090149 10.87321503 -6.06460571 9.61485291 C-6.06323105 8.51122406 -6.06185638 7.40759521 -6.06044006 6.27052307 C-6.06136186 5.30540582 -6.06228365 4.34028856 -6.06323338 3.34592533 C-5.83042654 -0.7576837 -3.58538506 0.03784523 0 0 Z M22.05981445 30.17700195 C21.96541467 32.44692082 21.94239219 34.71982163 21.94628906 36.99169922 C21.94614304 37.7038559 21.94599701 38.41601257 21.94584656 39.14974976 C21.94654575 41.51433308 21.95433839 43.87883857 21.9621582 46.2434082 C21.96402236 47.87865659 21.96544627 49.51390552 21.96644592 51.14915466 C21.97027128 55.46134981 21.9801017 59.77351148 21.9911499 64.08569336 C22.00136365 68.48266141 22.00594346 72.87963485 22.01098633 77.27661133 C22.02172396 85.91009026 22.03880058 94.54354195 22.05981445 103.17700195 C34.19380141 105.25406537 49.41230325 105.59749883 60.0715332 98.7121582 C69.18770792 91.67354 75.44049972 82.77839383 77.05981445 71.17700195 C78.16904558 61.29631237 75.72412954 51.3231721 69.87231445 43.23950195 C63.25145738 35.51280579 54.14854641 30.43809345 44.05981445 29.17700195 C40.45457567 29.03782448 36.85482618 29.03726739 33.24731445 29.05200195 C32.28116211 29.04813477 31.31500977 29.04426758 30.31958008 29.0402832 C28.94382812 29.0422168 28.94382812 29.0422168 27.5402832 29.04418945 C26.28574341 29.04588135 26.28574341 29.04588135 25.00585938 29.04760742 C23.0544815 28.96278951 23.0544815 28.96278951 22.05981445 30.17700195 Z " fill="#008CEA" transform="translate(309.940185546875,61.822998046875)"/>
<path d="M0 0 C3.49851496 2.84488736 6.7847505 5.83971203 10 9 C10.57878906 9.56589844 11.15757812 10.13179687 11.75390625 10.71484375 C24.48626164 24.31153658 25.45643899 41.75223942 25.328125 59.29296875 C25.32506158 61.1343012 25.3231899 62.97563598 25.32244873 64.81697083 C25.31787619 68.64866194 25.30355792 72.4801393 25.28125 76.31176758 C25.25274924 81.23255753 25.24201321 86.15318145 25.2375679 91.07404613 C25.23342481 94.86314053 25.22362027 98.6522012 25.21169281 102.44127846 C25.20598604 104.25744673 25.20122868 106.07361823 25.19742584 107.88979149 C25.19059154 110.41250795 25.17697867 112.9350898 25.16113281 115.45776367 C25.16001495 116.21142715 25.15889709 116.96509064 25.15774536 117.74159241 C25.11470468 122.88529532 25.11470468 122.88529532 24 124 C22.00035018 124.08758003 19.9976389 124.10696576 17.99609375 124.09765625 C16.78115234 124.09443359 15.56621094 124.09121094 14.31445312 124.08789062 C13.03505859 124.07951172 11.75566406 124.07113281 10.4375 124.0625 C9.15423828 124.05798828 7.87097656 124.05347656 6.54882812 124.04882812 C3.36583978 124.03699545 0.18294238 124.02051068 -3 124 C-3.0154612 122.68360786 -3.0154612 122.68360786 -3.03123474 121.34062195 C-3.129622 113.02936759 -3.23219102 104.71817727 -3.33933926 96.40703106 C-3.39426748 92.13522883 -3.44763562 87.86341949 -3.49731445 83.59155273 C-3.54540667 79.46123256 -3.5977588 75.33098548 -3.65294075 71.20075417 C-3.67316322 69.63290057 -3.69190648 68.0650271 -3.70907402 66.49713707 C-3.11513013 46.47495084 -3.11513013 46.47495084 -11.67578125 29.1484375 C-17.99309354 23.46145571 -24.46757349 20.78668934 -33 21 C-42.47388048 22.68579344 -49.46215278 27.15040348 -55 35 C-59.18287046 43.96329383 -58.13078928 55.08260752 -58.07516479 64.74412346 C-58.0622431 67.00989085 -58.05584704 69.27559882 -58.05102539 71.54139709 C-58.03968878 76.34012516 -58.02040671 81.13880309 -58 85.9375 C-57.97636537 91.52639465 -57.95602336 97.11526219 -57.94406128 102.70419502 C-57.93758664 104.93499099 -57.92508776 107.16570138 -57.91235352 109.39646912 C-57.9087224 110.75902228 -57.90537049 112.12157622 -57.90234375 113.48413086 C-57.89448853 115.26756142 -57.89448853 115.26756142 -57.88647461 117.08702087 C-58 120 -58 120 -59 123 C-68.24 123 -77.48 123 -87 123 C-87.02278487 114.18400731 -87.04104842 105.36803485 -87.05181217 96.55201912 C-87.05698373 92.45638033 -87.06397434 88.3607631 -87.07543945 84.26513672 C-87.08647564 80.29693268 -87.09231967 76.32874908 -87.09487724 72.36053085 C-87.09669483 70.86263584 -87.10024157 69.36474168 -87.10573006 67.86685562 C-87.13443676 59.69124053 -87.01327458 51.53410774 -86.62670898 43.36669922 C-86.58256536 42.26501246 -86.58256536 42.26501246 -86.53752995 41.14106941 C-85.79018093 27.28660508 -78.1389613 14.17933926 -68.16015625 4.77734375 C-49.56603432 -10.52161734 -20.24418747 -15.00272805 0 0 Z " fill="#008CEA" transform="translate(709,71)"/>
</svg>
