<?xml version="1.0" encoding="UTF-8" standalone="no"?>
<!DOCTYPE svg PUBLIC "-//W3C//DTD SVG 1.1//EN" "http://www.w3.org/Graphics/SVG/1.1/DTD/svg11.dtd">
<svg width="100%" height="100%" viewBox="0 0 300 300" version="1.1" xmlns="http://www.w3.org/2000/svg" xmlns:xlink="http://www.w3.org/1999/xlink" xml:space="preserve" xmlns:serif="http://www.serif.com/" style="fill-rule:evenodd;clip-rule:evenodd;stroke-linejoin:round;stroke-miterlimit:2;">
    <g transform="matrix(3,0,0,3,0,0)">
        <path d="M50,100C77.614,100 100,77.614 100,50C100,22.386 77.614,0 50,0C22.386,0 0,22.386 0,50C0,77.614 22.386,100 50,100Z" style="fill:rgb(253,101,66);"/>
    </g>
    <g transform="matrix(3,0,0,3,0,0)">
        <path d="M35.063,42.992L35.55,39.16L29.687,39.16L29.931,37.194C30.044,36.183 30.247,35.329 30.539,34.632C30.789,33.997 31.161,33.421 31.633,32.938C32.058,32.514 32.569,32.192 33.129,31.992C33.729,31.788 34.358,31.689 34.99,31.698L35.696,31.698C35.904,31.699 36.111,31.683 36.316,31.648C36.479,31.624 36.634,31.56 36.766,31.46C36.886,31.355 36.965,31.209 36.985,31.049L37.472,28.262C36.568,27.925 35.612,27.756 34.65,27.764C33.442,27.755 32.242,27.972 31.111,28.404C30.035,28.815 29.047,29.436 28.203,30.233C27.336,31.062 26.627,32.049 26.112,33.144C25.56,34.288 25.195,35.582 25.017,37.026L24.749,39.165L21.345,39.165L21.078,41.33C21.029,41.744 21.106,42.055 21.308,42.263C21.535,42.483 21.817,42.635 22.124,42.698L24.288,43.047L21.053,70.367L23.144,70.367C23.89,70.367 24.466,70.172 24.871,69.783C25.276,69.393 25.592,68.842 25.82,68.128L27.012,63.251L29.396,42.992L35.063,42.992ZM41.411,64.193L45.79,27.369L40.638,27.369L36.279,64.197L41.411,64.193ZM50.704,38.811L47.736,64.197L52.868,64.197L55.86,38.815L50.704,38.811ZM57.137,29.754C56.957,29.333 56.701,28.95 56.383,28.625C56.067,28.302 55.696,28.04 55.288,27.853C54.887,27.667 54.452,27.571 54.011,27.571C53.583,27.572 53.159,27.668 52.771,27.853C52.37,28.04 52.008,28.302 51.701,28.625C51.389,28.957 51.139,29.346 50.963,29.77C50.779,30.206 50.685,30.676 50.687,31.151C50.684,31.622 50.778,32.089 50.963,32.52C51.141,32.936 51.388,33.318 51.693,33.649C51.991,33.971 52.346,34.233 52.739,34.421C53.131,34.609 53.559,34.706 53.992,34.703C54.429,34.705 54.86,34.608 55.257,34.421C55.662,34.23 56.032,33.969 56.351,33.649C56.676,33.325 56.94,32.942 57.129,32.52C57.324,32.091 57.424,31.624 57.422,31.151C57.426,30.672 57.332,30.198 57.146,29.758L57.137,29.754ZM65.592,52.103C65.991,50.814 66.503,49.565 67.124,48.371C67.667,47.313 68.311,46.313 69.046,45.385C69.726,44.538 70.432,43.879 71.162,43.408C71.891,42.937 72.613,42.701 73.326,42.699C74.477,42.699 75.366,43.168 75.995,44.105C76.623,45.041 76.935,46.447 76.931,48.323C76.93,49.286 76.848,50.247 76.688,51.196C76.53,52.148 76.294,53.085 75.983,53.996C75.682,54.874 75.299,55.72 74.839,56.522C74.415,57.269 73.901,57.959 73.307,58.574C72.764,59.137 72.13,59.6 71.434,59.944C70.75,60.276 70.001,60.446 69.244,60.441C68.442,60.436 67.647,60.285 66.897,59.993C66.082,59.676 65.368,59.134 64.835,58.427L65.592,52.103ZM66.467,40.557C66.467,39.944 66.317,39.492 66.017,39.201C65.717,38.91 65.283,38.765 64.716,38.765L62.086,38.765L58.047,72.632L63.131,72.632L64.396,62.031C65.072,62.824 65.905,63.46 66.84,63.898C67.838,64.356 68.921,64.585 70.014,64.57C71.125,64.571 72.225,64.347 73.25,63.911C74.301,63.464 75.278,62.852 76.146,62.098C77.071,61.29 77.892,60.366 78.591,59.348C79.337,58.271 79.969,57.115 80.476,55.901C81.003,54.639 81.406,53.326 81.68,51.982C81.963,50.608 82.106,49.207 82.105,47.803C82.105,46.243 81.947,44.878 81.632,43.708C81.316,42.539 80.865,41.56 80.281,40.773C79.728,40.01 78.996,39.402 78.153,39.005C77.269,38.605 76.311,38.404 75.344,38.417C74.469,38.417 73.601,38.573 72.778,38.877C71.918,39.197 71.108,39.641 70.37,40.195C69.565,40.799 68.823,41.487 68.157,42.248C67.425,43.08 66.769,43.979 66.199,44.935L66.466,40.555L66.467,40.557Z" style="fill:white;fill-rule:nonzero;"/>
    </g>
</svg>
