<?xml version="1.0" encoding="UTF-8" standalone="no"?>
<!DOCTYPE svg PUBLIC "-//W3C//DTD SVG 1.1//EN" "http://www.w3.org/Graphics/SVG/1.1/DTD/svg11.dtd">
<svg width="100%" height="100%" viewBox="0 0 161 250" version="1.1" xmlns="http://www.w3.org/2000/svg" xmlns:xlink="http://www.w3.org/1999/xlink" xml:space="preserve" xmlns:serif="http://www.serif.com/" style="fill-rule:evenodd;clip-rule:evenodd;stroke-linejoin:round;stroke-miterlimit:2;">
    <g id="Layer_x0020_1" transform="matrix(0.040842,0,0,0.040836,-93.079401,-99.477295)">
        <g id="_2188753316224">
            <path d="M4163,3522L5309,3522C5474,3522 5582,3656 5582,3807L5582,6227C5582,6443 5440,6576 5309,6620L4348,6943C4348,6943 4055,6687 3953,6318C3953,6318 4078,6484 4280,6484C4520,6484 4727,6300 4727,6071C4727,5841 4729,4739 4729,4275C4729,3811 4320,3555 4163,3522Z" style="fill:url(#_Linear1);fill-rule:nonzero;"/>
            <path d="M4290,6958C4290,6958 3864,6567 3864,6087L3864,4266C3864,3978 4184,3894 4297,3894C4410,3894 4552,3964 4645,4073C4645,4073 4563,3771 4299,3642C4035,3512 3855,3522 3759,3522C3662,3522 3435,3521 3306,3521C3177,3521 3020,3603 3020,3824L3020,6285C3020,6506 3238,6593 3330,6626C3423,6659 4290,6958 4290,6958Z" style="fill:url(#_Linear2);fill-rule:nonzero;"/>
            <path d="M4730,2868C4730,3108 4536,3301 4297,3301C4058,3301 3864,3108 3864,2868C3864,2629 4058,2436 4297,2436C4536,2436 4730,2629 4730,2868Z" style="fill:url(#_Linear3);fill-rule:nonzero;"/>
            <g>
                <path d="M2378,7673C2350,7673 2327,7665 2308,7648C2288,7631 2279,7608 2279,7577C2279,7549 2289,7527 2308,7509C2328,7491 2351,7482 2378,7482C2403,7482 2425,7490 2445,7506C2464,7522 2474,7546 2474,7577C2474,7607 2465,7631 2446,7648C2426,7664 2404,7673 2378,7673ZM2474,7875L2474,8439C2474,8479 2465,8508 2446,8528C2428,8548 2404,8558 2375,8558C2347,8558 2324,8548 2306,8527C2288,8507 2279,8478 2279,8439L2279,7881C2279,7842 2288,7813 2306,7793C2324,7774 2347,7764 2375,7764C2404,7764 2428,7774 2446,7793C2465,7813 2474,7840 2474,7875Z" style="fill:rgb(63,63,65);fill-rule:nonzero;"/>
                <path d="M2791,8558C2761,8558 2736,8549 2714,8530C2693,8511 2682,8484 2682,8449C2682,8420 2692,8395 2713,8374C2733,8353 2759,8343 2789,8343C2819,8343 2844,8353 2866,8374C2887,8395 2898,8420 2898,8449C2898,8483 2887,8510 2866,8529C2844,8549 2820,8558 2791,8558Z" style="fill:rgb(63,63,65);fill-rule:nonzero;"/>
                <path d="M3735,8303C3735,8357 3721,8403 3695,8441C3669,8480 3630,8509 3579,8529C3528,8548 3465,8558 3392,8558C3322,8558 3261,8548 3211,8526C3161,8505 3124,8478 3100,8446C3077,8413 3065,8381 3065,8349C3065,8327 3072,8309 3088,8293C3103,8278 3122,8271 3146,8271C3166,8271 3182,8276 3193,8286C3204,8296 3214,8310 3224,8328C3244,8363 3268,8389 3296,8406C3324,8423 3362,8432 3410,8432C3449,8432 3482,8423 3507,8405C3532,8388 3544,8368 3544,8346C3544,8311 3531,8286 3505,8271C3479,8255 3436,8240 3377,8225C3309,8209 3255,8191 3212,8173C3170,8155 3136,8130 3111,8100C3086,8070 3073,8033 3073,7989C3073,7950 3085,7913 3108,7878C3132,7844 3166,7816 3212,7795C3257,7774 3312,7764 3377,7764C3427,7764 3473,7769 3513,7780C3553,7790 3587,7804 3614,7822C3641,7839 3661,7859 3675,7881C3690,7902 3697,7923 3697,7943C3697,7966 3689,7984 3674,7999C3659,8013 3638,8020 3610,8020C3590,8020 3573,8014 3559,8003C3545,7991 3529,7974 3511,7951C3496,7932 3478,7917 3458,7906C3438,7894 3411,7888 3377,7888C3341,7888 3312,7896 3289,7911C3265,7926 3254,7945 3254,7967C3254,7988 3262,8004 3279,8018C3297,8031 3320,8042 3349,8050C3378,8059 3418,8069 3469,8082C3530,8096 3579,8114 3618,8135C3656,8155 3685,8179 3705,8207C3725,8235 3735,8267 3735,8303Z" style="fill:rgb(63,63,65);fill-rule:nonzero;"/>
                <path d="M4379,8448C4332,8485 4286,8512 4242,8531C4198,8549 4148,8558 4093,8558C4043,8558 3999,8548 3961,8529C3923,8509 3894,8482 3874,8448C3853,8414 3843,8377 3843,8338C3843,8284 3860,8239 3894,8201C3928,8163 3974,8138 4033,8125C4046,8122 4077,8116 4126,8106C4175,8096 4217,8087 4252,8078C4287,8070 4325,8060 4366,8048C4364,7996 4353,7959 4335,7935C4317,7910 4279,7898 4221,7898C4171,7898 4134,7905 4109,7919C4084,7933 4062,7954 4044,7981C4027,8009 4014,8027 4007,8036C3999,8045 3983,8049 3959,8049C3937,8049 3918,8042 3902,8028C3886,8014 3878,7996 3878,7974C3878,7940 3890,7907 3915,7874C3939,7842 3977,7815 4028,7794C4080,7773 4144,7762 4221,7762C4307,7762 4374,7773 4423,7793C4473,7813 4507,7845 4528,7889C4548,7933 4558,7991 4558,8064L4558,8180C4557,8212 4557,8248 4557,8287C4557,8324 4563,8362 4575,8402C4587,8442 4593,8467 4593,8479C4593,8499 4584,8517 4565,8534C4546,8550 4525,8558 4501,8558C4481,8558 4461,8549 4441,8530C4422,8511 4401,8484 4379,8448ZM4366,8165C4338,8176 4296,8187 4241,8199C4187,8210 4149,8219 4128,8224C4107,8230 4087,8241 4068,8257C4049,8273 4039,8295 4039,8324C4039,8353 4050,8378 4073,8399C4095,8420 4124,8430 4161,8430C4199,8430 4235,8422 4268,8405C4300,8388 4324,8366 4340,8339C4357,8310 4366,8261 4366,8193L4366,8165Z" style="fill:rgb(63,63,65);fill-rule:nonzero;"/>
                <path d="M5228,8469L5056,8185L4950,8286L4950,8441C4950,8479 4940,8508 4920,8528C4900,8548 4878,8558 4852,8558C4822,8558 4798,8548 4781,8528C4764,8508 4755,8479 4755,8439L4755,7606C4755,7563 4763,7530 4780,7507C4797,7485 4821,7473 4852,7473C4882,7473 4906,7484 4923,7504C4941,7525 4950,7555 4950,7595L4950,8069L5170,7838C5197,7810 5217,7790 5232,7780C5246,7769 5263,7764 5284,7764C5308,7764 5329,7772 5345,7787C5361,7803 5369,7822 5369,7845C5369,7874 5343,7912 5290,7960L5186,8055L5386,8370C5401,8393 5412,8411 5418,8423C5425,8436 5428,8447 5428,8458C5428,8489 5419,8514 5402,8531C5386,8549 5363,8558 5336,8558C5312,8558 5293,8552 5280,8539C5268,8526 5250,8503 5228,8469Z" style="fill:rgb(63,63,65);fill-rule:nonzero;"/>
                <path d="M6038,8448L6038,8423C6015,8453 5990,8477 5964,8497C5939,8517 5910,8532 5880,8542C5849,8552 5814,8557 5775,8557C5728,8557 5686,8547 5648,8527C5611,8508 5582,8481 5561,8447C5537,8405 5525,8345 5525,8268L5525,7881C5525,7841 5534,7812 5551,7793C5569,7774 5592,7764 5621,7764C5651,7764 5675,7774 5693,7793C5711,7813 5720,7842 5720,7881L5720,8193C5720,8239 5724,8277 5732,8307C5739,8338 5753,8362 5773,8380C5793,8397 5819,8406 5853,8406C5886,8406 5917,8396 5946,8376C5975,8357 5997,8331 6010,8300C6021,8272 6027,8212 6027,8118L6027,7881C6027,7842 6036,7813 6054,7793C6072,7774 6096,7764 6125,7764C6154,7764 6177,7774 6195,7793C6212,7812 6221,7841 6221,7881L6221,8447C6221,8484 6213,8512 6196,8530C6179,8549 6157,8558 6130,8558C6104,8558 6082,8549 6064,8529C6047,8510 6038,8483 6038,8448Z" style="fill:rgb(63,63,65);fill-rule:nonzero;"/>
            </g>
        </g>
    </g>
    <defs>
        <linearGradient id="_Linear1" x1="0" y1="0" x2="1" y2="0" gradientUnits="userSpaceOnUse" gradientTransform="matrix(0,3351.04,-3351.04,0,4767.51,3539.75)"><stop offset="0" style="stop-color:rgb(0,175,195);stop-opacity:1"/><stop offset="1" style="stop-color:rgb(49,80,175);stop-opacity:1"/></linearGradient>
        <linearGradient id="_Linear2" x1="0" y1="0" x2="1" y2="0" gradientUnits="userSpaceOnUse" gradientTransform="matrix(0,3436.16,-3436.16,0,3832.44,3539.75)"><stop offset="0" style="stop-color:rgb(49,80,175);stop-opacity:1"/><stop offset="1" style="stop-color:rgb(0,175,195);stop-opacity:1"/></linearGradient>
        <linearGradient id="_Linear3" x1="0" y1="0" x2="1" y2="0" gradientUnits="userSpaceOnUse" gradientTransform="matrix(0,857.7,-857.7,0,4297.25,2464.6)"><stop offset="0" style="stop-color:rgb(249,189,63);stop-opacity:1"/><stop offset="1" style="stop-color:rgb(239,119,40);stop-opacity:1"/></linearGradient>
    </defs>
</svg>
