<?xml version="1.0" encoding="UTF-8"?>
<svg version="1.1" xmlns="http://www.w3.org/2000/svg" width="486" height="128">
<path d="M0 0 C13.00333449 9.64975644 22.07199938 24.1737244 24.71484375 40.26171875 C26.61818025 58.53896376 23.14729593 73.98228606 11.93359375 88.71484375 C2.7548553 99.63409432 -10.65351375 107.60343939 -25 109 C-28.91924502 109.11197843 -32.83583919 109.09343791 -36.75561523 109.01464844 C-40.38655784 108.947416 -43.50256194 109.10378949 -47 110 C-64.79206745 111.60658225 -81.46828882 108.57416762 -95.53125 96.8984375 C-105.69964351 87.30625296 -110.87924044 76.4023199 -111.40234375 62.46875 C-111.65382733 45.70317793 -105.88813987 32.58270415 -94.515625 20.33984375 C-84.47412354 11 -84.47412354 11 -79 11 C-78.73445313 10.40703125 -78.46890625 9.8140625 -78.1953125 9.203125 C-74.56360855 2.50939616 -67.56182282 -0.99893893 -61 -4.3125 C-60.33597168 -4.64991211 -59.67194336 -4.98732422 -58.98779297 -5.33496094 C-39.9469598 -14.5864392 -17.49822704 -11.03578487 0 0 Z M-59 6 C-57.51113281 6.31130859 -57.51113281 6.31130859 -55.9921875 6.62890625 C-38.23426844 10.56337456 -22.205272 18.30158415 -12 34 C-6.92311163 42.68201921 -4.61241737 50.86112226 -4.6875 60.875 C-4.69595947 62.06125977 -4.69595947 62.06125977 -4.70458984 63.27148438 C-5.00664406 77.82989931 -11.87403822 88.87403822 -22 99 C-12.61136623 97.59421526 -3.82469176 90.7183647 2 83.4375 C11.64831325 69.93999092 15.45435167 55.41801443 14 39 C10.94856151 23.9068634 2.78577982 11.12067877 -9.91015625 2.24609375 C-25.37693145 -6.97615165 -45.12708488 -5.69533232 -59 6 Z M-74.375 23.8125 C-80.01422842 32.25567811 -80.9768868 39.84936015 -80 50 C-78.29478909 58.3222872 -74.27622421 64.34530479 -68 70 C-62.51217057 73.58388861 -56.9990575 74.52131896 -50.5625 73.4375 C-43.67501241 71.69799802 -37.75868828 66.98605911 -34 61 C-29.93168248 52.95142378 -29.53416239 42.99422878 -31.65625 34.31640625 C-35.0192849 25.95230653 -40.99967803 19.92172646 -49 16 C-49.66 15.67 -50.32 15.34 -51 15 C-60.79046113 13.82849183 -68.11148902 16.01004283 -74.375 23.8125 Z M-89 27 C-97.42001028 37.66366572 -99.97436074 49.57153748 -99 63 C-96.81073803 76.34243121 -91.22089352 87.66203569 -80.390625 96.01171875 C-72.46340172 101.35251749 -64.63917053 104.62864156 -55 104 C-57.04647097 102.43119502 -59.10010694 100.93481811 -61.26171875 99.52734375 C-76.02345626 89.85258181 -84.17474086 76.19096144 -88.3515625 59.14453125 C-90.27524437 48.65711281 -89.48211737 37.49531894 -88 27 C-88.33 27 -88.66 27 -89 27 Z M-22 32 C-21.95359375 33.24394531 -21.9071875 34.48789062 -21.859375 35.76953125 C-21.55353097 47.33694771 -21.64165006 57.02831122 -29.3125 66.375 C-36.77186164 74.10302509 -44.56061497 77.97201277 -55.4375 78.4375 C-61.45681752 78.27527726 -66.5156519 76.34067193 -72 74 C-73.6657103 73.33094738 -75.33209935 72.66357338 -77 72 C-72.71069325 83.94108513 -63.78431634 92.08477608 -52.8125 97.875 C-47.62187603 100.41118051 -47.62187603 100.41118051 -42 101 C-29.81682666 95.38638424 -20.8355751 86.17115647 -15.625 73.8125 C-11.37716896 62.17634744 -12.10478438 49.41644804 -17.3125 38.1640625 C-18.48040105 36.06051345 -19.68374463 34.01340249 -21 32 C-21.33 32 -21.66 32 -22 32 Z " fill="#009AD1" transform="translate(111,10)"/>
<path d="M0 0 C7.75059094 6.18879578 11.45897812 14.91366336 12.76171875 24.59375 C13.23364307 30.06807213 12.45051478 33.77246057 9.76171875 38.59375 C5.65177606 41.86322718 1.89177758 41.99576413 -3.1640625 41.88671875 C-3.91165329 41.88247391 -4.65924408 41.87822906 -5.42948914 41.87385559 C-7.80362857 41.85714056 -10.17690092 41.81950347 -12.55078125 41.78125 C-14.16600331 41.76619381 -15.78123876 41.75250703 -17.39648438 41.74023438 C-21.34408113 41.7072608 -25.29103447 41.65552969 -29.23828125 41.59375 C-28.63597297 43.0451679 -28.02327726 44.49227803 -27.40625 45.9375 C-27.0661792 46.74380859 -26.7261084 47.55011719 -26.37573242 48.38085938 C-24.62116325 51.79434188 -22.70251791 53.02503906 -19.23828125 54.59375 C-12.47251562 56.45076437 -6.64260128 55.21790279 -0.23828125 52.59375 C0.75171875 51.93375 1.74171875 51.27375 2.76171875 50.59375 C3.75171875 50.59375 4.74171875 50.59375 5.76171875 50.59375 C7.4375 52.640625 7.4375 52.640625 9.07421875 55.34375 C9.62722656 56.22546875 10.18023437 57.1071875 10.75 58.015625 C11.76171875 60.59375 11.76171875 60.59375 11.2109375 62.7578125 C6.40656694 68.84421186 -2.90415307 70.72236843 -10.23828125 71.59375 C-17.85870687 72.40505007 -24.78081721 70.45546141 -31.48828125 66.84375 C-39.70182433 60.12357839 -43.88426838 52.15505041 -45.23828125 41.59375 C-45.95445501 27.90381315 -45.75760428 14.44534849 -36.23828125 3.59375 C-26.34982876 -5.92618873 -11.75176629 -7.38330867 0 0 Z M-25.23828125 13.59375 C-28.47065655 17.94756163 -29.23828125 21.13651211 -29.23828125 26.59375 C-20.65828125 26.59375 -12.07828125 26.59375 -3.23828125 26.59375 C-4.2509614 19.22866552 -4.2509614 19.22866552 -8.23828125 13.59375 C-14.05733868 9.9568391 -19.46106412 9.54567674 -25.23828125 13.59375 Z " fill="#009AD1" transform="translate(248.23828125,28.40625)"/>
<path d="M0 0 C5.3543641 6.36735191 8.44606169 11.65409197 8.42602539 20.06933594 C8.42594986 21.13013367 8.42587433 22.1909314 8.42579651 23.28387451 C8.42063522 24.42253967 8.41547394 25.56120483 8.41015625 26.734375 C8.4087413 27.90510559 8.40732635 29.07583618 8.40586853 30.28204346 C8.4002709 34.02138829 8.3877188 37.76067326 8.375 41.5 C8.3699847 44.03515539 8.36542184 46.57031171 8.36132812 49.10546875 C8.35030224 55.32033293 8.33356644 61.53516219 8.3125 67.75 C6.00006208 67.77685412 3.6875373 67.79632841 1.375 67.8125 C0.08722656 67.82410156 -1.20054687 67.83570312 -2.52734375 67.84765625 C-5.6875 67.75 -5.6875 67.75 -6.6875 66.75 C-6.79449488 65.2114785 -6.83371285 63.6681711 -6.84521484 62.12597656 C-6.85547699 61.14115295 -6.86573914 60.15632935 -6.87631226 59.1416626 C-6.88361359 58.06882019 -6.89091492 56.99597778 -6.8984375 55.890625 C-6.92651187 53.63801364 -6.95517637 51.38540957 -6.984375 49.1328125 C-7.02562405 45.56673427 -7.06249415 42.00079132 -7.08886719 38.43457031 C-7.11647233 35.00296552 -7.1623541 31.57198831 -7.2109375 28.140625 C-7.21419037 27.07587952 -7.21744324 26.01113403 -7.22079468 24.91412354 C-7.25216523 17.80799672 -7.25216523 17.80799672 -10.6875 11.75 C-15.05721226 8.62877695 -18.32580072 8.53097656 -23.44140625 9.1328125 C-26.32518636 9.92522512 -28.28698308 10.9519733 -30.6875 12.75 C-31.447634 15.25120507 -31.447634 15.25120507 -31.34692383 18.1394043 C-31.36656693 19.24031906 -31.38621002 20.34123383 -31.40644836 21.47550964 C-31.40251572 22.66308365 -31.39858307 23.85065765 -31.39453125 25.07421875 C-31.40965256 26.29075638 -31.42477386 27.50729401 -31.44035339 28.76069641 C-31.48340284 32.65315029 -31.49208563 36.54483127 -31.5 40.4375 C-31.52313068 43.07358851 -31.548493 45.70965845 -31.57617188 48.34570312 C-31.63919491 54.81380926 -31.67399207 61.28161126 -31.6875 67.75 C-33.99993792 67.77685412 -36.3124627 67.79632841 -38.625 67.8125 C-39.91277344 67.82410156 -41.20054687 67.83570312 -42.52734375 67.84765625 C-45.6875 67.75 -45.6875 67.75 -46.6875 66.75 C-46.81272101 64.94685071 -46.86824105 63.13881819 -46.89624023 61.33154297 C-46.91553085 60.17298798 -46.93482147 59.01443298 -46.95469666 57.82077026 C-47.01225294 52.4977154 -47.0620629 47.17482973 -47.0925293 41.8515625 C-47.11029428 39.04412743 -47.14502597 36.2377061 -47.19506836 33.43066406 C-47.26704758 29.38850935 -47.28952814 25.34744387 -47.30859375 21.3046875 C-47.33642441 20.05340057 -47.36425507 18.80211365 -47.39292908 17.51290894 C-47.36998459 7.77553375 -47.36998459 7.77553375 -43.80224609 3.52319336 C-31.47921191 -8.38190363 -13.63666945 -11.41674652 0 0 Z " fill="#009AD1" transform="translate(317.6875,31.25)"/>
<path d="M0 0 C4.95 0 9.9 0 15 0 C15.01458252 1.41740479 15.02916504 2.83480957 15.04418945 4.29516602 C15.10231444 9.57145981 15.17954705 14.84733319 15.26245117 20.12329102 C15.29563367 22.40349486 15.32368624 24.68377953 15.34643555 26.96411133 C15.38010382 30.24855882 15.43242726 33.53227014 15.48828125 36.81640625 C15.49467117 37.83021866 15.5010611 38.84403107 15.50764465 39.88856506 C15.64185183 46.40066877 16.1956705 51.76423519 20.625 56.875 C24.3421798 58.63576938 27.89300384 59.22103625 32 59 C36.55305477 56.9764201 38.53706125 54.75686895 40.39102173 50.16159058 C41.62059204 45.79718594 41.48332531 41.32125241 41.51171875 36.81640625 C41.52966995 35.76090073 41.54762115 34.7053952 41.56611633 33.61790466 C41.62004359 30.26614302 41.65405917 26.91452238 41.6875 23.5625 C41.72068853 21.2818815 41.7551796 19.00128156 41.79101562 16.72070312 C41.87576025 11.14723741 41.9426556 5.57381225 42 0 C46.62 0 51.24 0 56 0 C56.09932908 7.36486944 56.17168728 14.72934363 56.21972656 22.09472656 C56.23976603 24.59707436 56.26700522 27.09937578 56.30175781 29.6015625 C56.3506124 33.21105437 56.37304645 36.81992379 56.390625 40.4296875 C56.41127014 41.53738495 56.43191528 42.6450824 56.45318604 43.78634644 C56.45571837 52.67390174 54.85829512 60.16345234 48.75 66.875 C41.93883951 72.9935001 35.1427207 75.11721437 26 75 C17.4948712 74.13349001 11.65713609 70.4014961 6 64 C-0.08730571 55.30384898 -0.30758536 45.18959146 -0.1953125 34.86328125 C-0.1924826 33.85782761 -0.18965271 32.85237396 -0.18673706 31.81645203 C-0.17566487 28.64833979 -0.15058557 25.48052479 -0.125 22.3125 C-0.11495341 20.1464885 -0.10583052 17.9804725 -0.09765625 15.81445312 C-0.07576819 10.54285662 -0.04132997 5.27147846 0 0 Z " fill="#009AD1" transform="translate(369,25)"/>
<path d="M0 0 C1.41316778 2.6460549 1.02640591 3.90499181 0.22265625 6.796875 C-0.35162109 8.25867188 -0.35162109 8.25867188 -0.9375 9.75 C-1.50791016 11.22726563 -1.50791016 11.22726563 -2.08984375 12.734375 C-2.39019531 13.48203125 -2.69054687 14.2296875 -3 15 C-4.05058594 14.69964844 -5.10117187 14.39929688 -6.18359375 14.08984375 C-18.11770464 10.4972198 -18.11770464 10.4972198 -30 13 C-30.8236156 15.17135022 -31.01136154 16.8068538 -30.875 19.125 C-30.14940631 21.20467079 -30.14940631 21.20467079 -27.8984375 21.9765625 C-24.54193991 23.16174089 -21.151241 24.20023426 -17.75 25.25 C-9.19508493 28.04163672 -1.33627173 31.46472624 3.1875 39.6640625 C5.30161115 45.74213205 5.03102887 52.48881708 2.4375 58.375 C-1.11419805 64.30682903 -5.54703621 67.81186978 -12.125 69.9375 C-23.72750276 72.58090786 -34.33367254 69.61440851 -45 65 C-45.99 64.34 -46.98 63.68 -48 63 C-47.34580901 57.93001981 -45.1453591 53.58009223 -43 49 C-39.48264151 49.59869932 -36.5048442 50.55340258 -33.25 52 C-27.14875222 54.47494895 -21.38557507 56.17945451 -15 53.8125 C-11.94226778 52.32977972 -11.94226778 52.32977972 -11 50 C-10.89459074 47.78918149 -10.89459074 47.78918149 -12 45 C-16.69426695 42.2014947 -21.17589895 40.63089349 -26.4375 39.1875 C-33.99958418 36.94168382 -40.16454951 33.32024844 -44.5 26.5625 C-47.35748023 19.77598445 -47.62078586 14.90313206 -45 8.10546875 C-42.09929479 1.99812457 -38.31139408 -0.7221824 -32.28125 -3.23828125 C-22.15940731 -6.61800612 -9.36296407 -5.08505807 0 0 Z " fill="#009AD1" transform="translate(482,29)"/>
<path d="M0 0 C4.95 0 9.9 0 15 0 C15.09063041 10.12759957 15.16390529 20.25492659 15.20724869 30.38284111 C15.22805896 35.08643626 15.25625566 39.78973783 15.30175781 44.49316406 C15.34545098 49.03842144 15.36918636 53.58339772 15.37950897 58.12884903 C15.38685845 59.85668483 15.40120964 61.5845065 15.42292023 63.31222153 C15.55131791 73.96053905 14.90174561 82.39704589 9.375 91.75 C2.95393061 97.83311837 -4.97456212 102.0696318 -13.875 102.125 C-15.23625 102.08375 -16.5975 102.0425 -18 102 C-18 97.05 -18 92.1 -18 87 C-13.55664062 86.12109375 -13.55664062 86.12109375 -9.11328125 85.2421875 C-5.25236809 83.70169768 -3.08117696 81.52614303 -1 78 C-0.5107657 75.18146949 -0.30636928 72.9655733 -0.34057617 70.15869141 C-0.32485062 69.01620941 -0.32485062 69.01620941 -0.30880737 67.85064697 C-0.28016544 65.3505322 -0.28633559 62.85181122 -0.29296875 60.3515625 C-0.27984704 58.61134108 -0.26454135 56.87113488 -0.24714661 55.13095093 C-0.20733877 50.56394395 -0.1971089 45.99733578 -0.19311523 41.43017578 C-0.18377581 36.7645257 -0.14635721 32.09910917 -0.11132812 27.43359375 C-0.04679491 18.2890183 -0.01611667 9.14478909 0 0 Z " fill="#009AD1" transform="translate(177,26)"/>
<path d="M0 0 C4.95 0 9.9 0 15 0 C15 24.42 15 48.84 15 74 C10.05 74 5.1 74 0 74 C0 49.58 0 25.16 0 0 Z " fill="#009BD2" transform="translate(341,25)"/>
</svg>
