<?xml version="1.0" encoding="UTF-8"?>
<svg version="1.1" xmlns="http://www.w3.org/2000/svg" width="1252" height="512">
<path d="M0 0 C0.82052353 -0.02668259 1.64104706 -0.05336517 2.48643494 -0.08085632 C8.60880229 -0.10758736 12.12499557 1.60886829 16.63671875 5.890625 C21.43666861 11.82480959 22.33680273 16.46924654 22.328125 23.98828125 C22.33241013 24.81279785 22.33669525 25.63731445 22.34111023 26.48681641 C22.34683689 28.22492558 22.34736608 29.96305871 22.34301758 31.70117188 C22.33985412 34.35458313 22.36334875 37.00688237 22.38867188 39.66015625 C22.39094476 41.35286318 22.39164842 43.0455731 22.390625 44.73828125 C22.39983475 45.52799316 22.40904449 46.31770508 22.41853333 47.13134766 C22.38030886 51.69875387 22.04762444 54.84325967 19.02734375 58.36328125 C15.43501859 60.12677381 12.54252663 60.61385754 8.56348228 60.61661434 C6.92632053 60.62503744 6.92632053 60.62503744 5.2560848 60.63363069 C4.06261045 60.6296496 2.86913609 60.62566851 1.63949585 60.62156677 C0.36735564 60.62524248 -0.90478457 60.62891818 -2.21547449 60.63270527 C-5.74430598 60.64268524 -9.27303806 60.64031313 -12.80187702 60.63597834 C-16.60830164 60.6335023 -20.41470013 60.64257002 -24.22111511 60.65036011 C-30.81592889 60.66240492 -37.4107185 60.66751301 -44.00554276 60.6682415 C-53.54383083 60.66956659 -63.08206017 60.68467283 -72.62032752 60.70373667 C-88.09974234 60.73457829 -103.57915864 60.75874512 -119.05859375 60.77661133 C-119.98506051 60.77768401 -120.91152726 60.77875669 -121.86606877 60.77986187 C-132.20748448 60.79168744 -142.54890078 60.80189248 -152.89031982 60.81030273 C-156.64270021 60.81337677 -160.39508058 60.81646553 -164.14746094 60.81958008 C-165.07340674 60.82034542 -165.99935253 60.82111076 -166.95335729 60.82189929 C-182.37709403 60.83496786 -197.80078818 60.85958761 -213.22449338 60.89332348 C-222.74247078 60.91364249 -232.26035717 60.92389889 -241.77835642 60.92133427 C-248.29511108 60.92030142 -254.81179366 60.92990024 -261.32852317 60.9479733 C-265.09192498 60.95804563 -268.85516738 60.96311727 -272.61857796 60.95520592 C-276.69212238 60.94674408 -280.76525733 60.96120565 -284.83877563 60.97801208 C-286.03671143 60.97180027 -287.23464723 60.96558845 -288.46888411 60.9591884 C-289.55510979 60.96741154 -290.64133546 60.97563469 -291.76047707 60.98410702 C-292.70137172 60.98492147 -293.64226638 60.98573593 -294.611673 60.98657507 C-297.01258663 61.19003957 -297.01258663 61.19003957 -298.77497995 62.64869839 C-300.85084553 65.6204893 -300.44320466 68.92566373 -299.97265625 72.36328125 C-298.11497478 77.62671207 -295.40473883 80.19750798 -290.97265625 83.36328125 C-287.6604169 84.50797199 -284.50434943 84.48916418 -281.01946354 84.4907732 C-279.79336119 84.49378085 -278.56725884 84.4967885 -277.30400187 84.49988729 C-275.94127967 84.49819971 -274.57855757 84.49642865 -273.21583557 84.49458313 C-271.76971805 84.49628519 -270.323601 84.49843483 -268.87748474 84.50099438 C-265.72986653 84.50559373 -262.58226799 84.50701179 -259.43464661 84.50602913 C-254.31310756 84.50443722 -249.19158806 84.50963678 -244.0700531 84.51565552 C-236.63274199 84.52377195 -229.19543431 84.52871363 -221.75811958 84.53194618 C-209.99668561 84.53744345 -198.23528063 84.55434252 -186.47386169 84.57328796 C-182.44942956 84.57964497 -178.42499735 84.5859534 -174.40056515 84.59226513 C-173.39474114 84.59384889 -172.38891714 84.59543265 -171.35261362 84.59706441 C-159.89987275 84.61500544 -148.44712983 84.63122868 -136.99438477 84.64624023 C-135.42384823 84.64830404 -135.42384823 84.64830404 -133.82158368 84.65040954 C-116.86892283 84.67232142 -99.91626945 84.68309118 -82.96359695 84.69061098 C-65.55327303 84.69868963 -48.143013 84.72200576 -30.73272556 84.75856465 C-19.99796741 84.78056158 -9.26334071 84.79026288 1.47143883 84.78406432 C8.83488982 84.78088315 16.19822881 84.79226318 23.56164514 84.81495873 C27.806297 84.82759244 32.05069924 84.83383785 36.29536057 84.82254219 C40.18873407 84.81231496 44.08162475 84.82074297 47.97494162 84.84340515 C49.3761134 84.84836701 50.77732917 84.84673416 52.17847913 84.83747248 C66.45055047 84.75062434 78.28354527 87.65088743 89.02734375 97.36328125 C99.40034257 108.43167663 102.34815629 120.09665686 102.28804016 134.9760437 C102.29186571 135.99700925 102.29569126 137.0179748 102.29963273 138.0698787 C102.30989061 141.46574737 102.30598433 144.86144468 102.30200195 148.25732422 C102.30635241 150.70235347 102.31153667 153.14738135 102.31748962 155.59240723 C102.32946857 161.52939344 102.3320354 167.46633768 102.32968936 173.40333138 C102.32790153 178.23232373 102.32966578 183.0613024 102.3339138 187.89029312 C102.33450899 188.57931386 102.33510418 189.26833459 102.33571741 189.97823475 C102.33692924 191.37828063 102.33814337 192.77832652 102.33935978 194.1783724 C102.35021968 207.28857698 102.34808016 220.39875579 102.34197494 233.50896181 C102.33680692 245.48272529 102.34806093 257.4564074 102.36707316 269.43015479 C102.38648014 281.74767217 102.39470256 294.06515111 102.3909499 306.38268387 C102.38904223 313.28888067 102.39148302 320.19500821 102.40566444 327.10119247 C102.41886913 333.59702253 102.41627947 340.0927307 102.40325356 346.58856201 C102.40089265 348.96689026 102.40360495 351.34523003 102.41187668 353.72354507 C102.46816521 371.17143945 102.50952846 386.15422971 89.88671875 399.65234375 C81.3590614 407.61347841 72.104762 412.60602643 60.23089981 412.62055016 C59.25628967 412.62580927 59.25628967 412.62580927 58.26199043 412.63117462 C56.093702 412.6404482 53.92568455 412.6355759 51.75738525 412.63070679 C50.18350753 412.63444509 48.60963167 412.63904733 47.03575873 412.64443743 C42.71738838 412.6566606 38.39909554 412.65640777 34.08071184 412.65404868 C29.42071879 412.65364034 24.76075053 412.66468131 20.10076904 412.67416382 C10.97329989 412.69077111 1.84585657 412.69627325 -7.28162643 412.69738857 C-14.70175463 412.69833919 -22.12187431 412.70245016 -29.54199982 412.70878983 C-50.58386066 412.7264016 -71.6257011 412.73562881 -92.66756937 412.73412888 C-94.36884616 412.73400901 -94.36884616 412.73400901 -96.10449219 412.73388672 C-97.2400631 412.73380496 -98.37563402 412.7337232 -99.54561618 412.73363896 C-117.94797594 412.7328261 -136.35025383 412.75196377 -154.75258991 412.78016345 C-173.65232787 412.8088966 -192.55202592 412.8227035 -211.45178628 412.8209759 C-222.06080599 412.82031214 -232.6697399 412.82579825 -243.27873993 412.847332 C-252.31172929 412.86554945 -261.34459394 412.86988648 -270.37759373 412.85631315 C-274.98454863 412.84978634 -279.59126431 412.84965595 -284.19819641 412.86701965 C-288.42007049 412.88276811 -292.64151601 412.87986876 -296.86337975 412.86245139 C-298.38623828 412.85938539 -299.90912895 412.86299879 -301.43194959 412.87417154 C-315.94700615 412.97356746 -327.41138873 409.69493623 -338.01171875 399.37890625 C-344.47536053 392.28265272 -349.2128354 384.49389718 -349.23271847 374.64533806 C-349.23978406 373.52262217 -349.24684965 372.39990629 -349.25412935 371.24316871 C-349.25171427 370.01983679 -349.24929918 368.79650488 -349.24681091 367.53610229 C-349.25204759 366.22862223 -349.25728427 364.92114216 -349.26267964 363.57404149 C-349.27683962 359.95083906 -349.27852331 356.32772251 -349.27808273 352.70449638 C-349.27973273 348.79429735 -349.29280276 344.88413351 -349.30427551 340.97395325 C-349.32711147 332.42625526 -349.33504476 323.87858211 -349.34010196 315.33085775 C-349.34336091 309.99085337 -349.34988464 304.65085618 -349.35710335 299.31085587 C-349.37666823 284.51811645 -349.39307283 269.72538372 -349.39597988 254.93263054 C-349.39626124 253.51306993 -349.39626124 253.51306993 -349.39654827 252.06483132 C-349.39691452 250.1463964 -349.39727822 248.22796147 -349.39763939 246.30952655 C-349.3978222 245.35724607 -349.39800501 244.40496559 -349.39819336 243.42382812 C-349.39837391 242.47038152 -349.39855446 241.51693491 -349.39874048 240.53459598 C-349.40228083 225.0912566 -349.429295 209.64805678 -349.46669125 194.20476578 C-349.50480185 178.33913631 -349.52413756 162.47357603 -349.52443939 146.60789979 C-349.52502338 137.70404393 -349.53347725 128.80035452 -349.56243706 119.8965416 C-349.5869879 112.31353357 -349.59420899 104.73075267 -349.57918953 97.14771561 C-349.57203543 93.28181236 -349.57281249 89.41635728 -349.59560013 85.55050468 C-349.62011748 81.35079685 -349.60551244 77.15210228 -349.58738708 72.95236206 C-349.60058705 71.74241447 -349.61378702 70.53246689 -349.62738699 69.28585422 C-349.54622681 61.02839916 -347.65644172 54.74109859 -343.97265625 47.36328125 C-343.31265625 47.36328125 -342.65265625 47.36328125 -341.97265625 47.36328125 C-341.78703125 46.68265625 -341.60140625 46.00203125 -341.41015625 45.30078125 C-336.93349193 36.15281503 -327.90514348 32.21480437 -318.97265625 28.36328125 C-314.76105216 27.1586443 -310.47201876 26.85688673 -306.125 26.4609375 C-305.2494194 26.37899139 -304.37383881 26.29704529 -303.47172546 26.21261597 C-300.6181775 25.94687773 -297.7642021 25.6861135 -294.91015625 25.42578125 C-293.93592712 25.33579865 -292.961698 25.24581604 -291.95794678 25.15310669 C-279.45032961 23.99792984 -266.94477178 22.94872178 -254.41381836 22.08007812 C-246.58087988 21.5219259 -238.78070667 20.76003567 -230.97265625 19.92578125 C-220.54359859 18.81284573 -210.11058363 17.81126172 -199.66015625 16.92578125 C-198.59041061 16.83502319 -198.59041061 16.83502319 -197.49905396 16.74243164 C-189.16965822 16.03775326 -180.8387452 15.35161524 -172.50756836 14.66836548 C-167.47498979 14.25547671 -162.44253636 13.84108155 -157.41015625 13.42578125 C-156.39348877 13.34193176 -155.37682129 13.25808228 -154.3293457 13.17169189 C-139.05213485 11.90806092 -123.78994482 10.52436718 -108.53210449 9.0461731 C-95.51944705 7.78557381 -82.50352816 6.59983108 -69.47509766 5.51416016 C-62.13932806 4.90106213 -54.80727687 4.26124656 -47.4783783 3.57022095 C-43.4805731 3.19332307 -39.48217721 2.82286959 -35.48379517 2.45214844 C-33.55849486 2.27169574 -31.63348761 2.08808048 -29.70883179 1.90087891 C-19.81542835 0.93958718 -9.94213267 0.17022964 0 0 Z " fill="#EE4D2D" transform="translate(348.97265625,-0.36328125)"/>
<path d="M0 0 C1.47950134 -0.00525696 1.47950134 -0.00525696 2.9888916 -0.01062012 C6.24624708 -0.01941199 9.50338452 -0.01359171 12.76074219 -0.00683594 C15.04075156 -0.0081846 17.32076065 -0.01012682 19.60076904 -0.01263428 C24.38556652 -0.01558318 29.17028934 -0.0113001 33.95507812 -0.00195312 C40.04023923 0.00936359 46.12522236 0.00293014 52.21037674 -0.00909805 C56.92577406 -0.01638954 61.64113055 -0.01399428 66.35652924 -0.00884247 C68.5968503 -0.00752197 70.83717525 -0.0090966 73.07749176 -0.01380157 C91.18629769 -0.04345366 108.76486751 0.28421306 126.05761719 6.25878906 C127.89259766 6.89107422 127.89259766 6.89107422 129.76464844 7.53613281 C143.65091056 12.58275219 158.23135531 21.09116445 168.05761719 32.25878906 C168.05761719 32.91878906 168.05761719 33.57878906 168.05761719 34.25878906 C168.71761719 34.25878906 169.37761719 34.25878906 170.05761719 34.25878906 C171.73293769 36.18118921 173.27947607 38.09880461 174.80761719 40.13378906 C175.25790283 40.73022217 175.70818848 41.32665527 176.17211914 41.94116211 C192.58932613 63.959638 200.39049892 90.01453715 197.74902344 117.46582031 C197.2909588 120.42905261 196.70490898 123.3310957 196.05761719 126.25878906 C195.81269531 127.48984375 195.56777344 128.72089844 195.31542969 129.98925781 C193.12842433 140.28551206 189.20426704 149.11198293 184.05761719 158.25878906 C183.51234375 159.24621094 182.96707031 160.23363281 182.40527344 161.25097656 C179.11628929 166.79962952 175.20162521 171.57167928 170.87011719 176.32128906 C170.35868164 176.88227295 169.84724609 177.44325684 169.3203125 178.02124023 C166.78221257 180.7157927 164.5471779 182.91793161 161.05761719 184.25878906 C161.05761719 184.91878906 161.05761719 185.57878906 161.05761719 186.25878906 C137.3210275 205.55227343 109.91634841 211.84267685 79.92089844 211.55175781 C78.17685823 211.54614025 76.43281318 211.54188042 74.68876648 211.53889465 C70.16956765 211.52761547 65.65067305 211.49830138 61.1315918 211.46478271 C56.49174105 211.43370954 51.85183958 211.420311 47.21191406 211.40527344 C38.16035045 211.37340948 29.10900942 211.32242727 20.05761719 211.25878906 C20.06205841 212.5461647 20.06649963 213.83354034 20.07107544 215.15992737 C20.11163765 227.29855616 20.14160938 239.43717118 20.16124153 251.57585239 C20.17167392 257.8163034 20.18582334 264.05669965 20.20849609 270.29711914 C20.23024365 276.32065811 20.24218991 282.34414444 20.24737167 288.36771965 C20.25106397 290.66458909 20.25827409 292.96145569 20.2690773 295.25830269 C20.28361745 298.47801033 20.28559405 301.69750108 20.28466797 304.91723633 C20.29185852 305.8645462 20.29904907 306.81185608 20.30645752 307.78787231 C20.28591459 314.39829488 20.01254997 319.83793063 15.71386719 325.16113281 C11.00009617 328.64926616 5.15499393 327.94100174 -0.44238281 327.82128906 C-1.55742188 327.83224609 -2.67246094 327.84320313 -3.82128906 327.85449219 C-10.11290287 327.79825011 -14.22696184 327.58911732 -18.94238281 323.25878906 C-21.15926866 319.9334603 -21.19443515 318.90705078 -21.20244503 315.03378582 C-21.21304342 313.40014726 -21.21304342 313.40014726 -21.22385591 311.7335059 C-21.22144083 310.53236128 -21.21902574 309.33121665 -21.21653748 308.09367371 C-21.22177415 306.82127549 -21.22701083 305.54887727 -21.2324062 304.23792154 C-21.24661709 300.69897117 -21.24824891 297.1601085 -21.24780929 293.62113369 C-21.24945479 289.80711153 -21.26251629 285.99312579 -21.27400208 282.17912292 C-21.29687201 273.83618912 -21.30477481 265.49328072 -21.30982852 257.15031981 C-21.31308321 251.94254346 -21.31960429 246.73477451 -21.32682991 241.52700233 C-21.34639839 227.11267808 -21.36280116 212.69836072 -21.36570644 198.28402233 C-21.36589401 197.36124236 -21.36608158 196.43846238 -21.36627484 195.48771938 C-21.36664109 193.61695659 -21.36700479 191.74619381 -21.36736595 189.87543102 C-21.36754876 188.94676095 -21.36773157 188.01809088 -21.36791992 187.0612793 C-21.36810047 186.13147786 -21.36828102 185.20167641 -21.36846704 184.24369917 C-21.37200939 169.17440599 -21.39903441 154.10525565 -21.43641781 139.03601202 C-21.47447767 123.57053068 -21.49386375 108.10512026 -21.49416596 92.63959104 C-21.49475105 83.95385648 -21.50327634 75.26829231 -21.53216362 66.58260155 C-21.55664651 59.18709433 -21.56398143 51.79181963 -21.54891609 44.39628287 C-21.54173439 40.62227695 -21.54265804 36.84873045 -21.56532669 33.0747757 C-21.58966038 28.98446256 -21.57531651 24.8952 -21.55711365 20.80485535 C-21.57031362 19.61040289 -21.58351358 18.41595043 -21.59711355 17.18530244 C-21.50584691 8.23767329 -21.50584691 8.23767329 -18.57215595 4.55958652 C-12.96614594 -0.3451307 -7.08026752 -0.03106804 0 0 Z M19.05761719 42.25878906 C19.05761719 83.83878906 19.05761719 125.41878906 19.05761719 168.25878906 C39.01230469 168.35160156 39.01230469 168.35160156 59.37011719 168.44628906 C63.55094971 168.47360107 67.73178223 168.50091309 72.03930664 168.52905273 C75.82857145 168.53909385 75.82857145 168.53909385 79.61784363 168.54512024 C81.28905136 168.54968882 82.96025 168.56015973 84.63139343 168.57551575 C94.23019251 168.65921201 102.91386079 168.5820211 112.05761719 165.25878906 C112.90661087 164.97919846 113.75560455 164.69960785 114.63032532 164.4115448 C125.67229957 160.68136665 136.37892402 152.80266177 143.05761719 143.25878906 C143.05761719 142.59878906 143.05761719 141.93878906 143.05761719 141.25878906 C143.71761719 141.25878906 144.37761719 141.25878906 145.05761719 141.25878906 C146.17255309 139.13888354 147.2743522 137.01358581 148.37011719 134.88378906 C148.67884766 134.29984375 148.98757813 133.71589844 149.30566406 133.11425781 C153.8989365 124.12111388 155.62002096 115.64747242 155.55761719 105.57128906 C155.55121216 103.9962561 155.55121216 103.9962561 155.54467773 102.3894043 C155.27559197 90.01431168 151.73083536 79.73716143 145.05761719 69.25878906 C144.39761719 69.25878906 143.73761719 69.25878906 143.05761719 69.25878906 C142.87199219 68.57816406 142.68636719 67.89753906 142.49511719 67.19628906 C137.23894865 56.45542292 123.45500261 49.15390696 112.63183594 45.01269531 C105.87722485 43.034486 99.54772598 41.96289633 92.50854492 42.03173828 C91.69466088 42.03149721 90.88077684 42.03125614 90.04222965 42.03100777 C87.44177371 42.03248499 84.84161471 42.0476436 82.24121094 42.06347656 C80.6221124 42.06642195 79.00301196 42.06845933 77.38391113 42.06958008 C71.42095053 42.08001001 65.45803085 42.10793249 59.49511719 42.13378906 C46.15074219 42.17503906 32.80636719 42.21628906 19.05761719 42.25878906 Z " fill="#ED4C2C" transform="translate(579.9423828125,84.7412109375)"/>
<path d="M0 0 C0 0.66 0 1.32 0 2 C0.61875 2.309375 1.2375 2.61875 1.875 2.9375 C3.25 3.625 4.625 4.3125 6 5 C6.03738281 3.75863281 6.07476563 2.51726562 6.11328125 1.23828125 C6.1789595 -0.40367511 6.2454062 -2.04560087 6.3125 -3.6875 C6.34633789 -4.91243164 6.34633789 -4.91243164 6.38085938 -6.16210938 C6.58863928 -10.82771269 6.81315475 -14.3375062 10 -18 C16 -21 16 -21 44 -21 C44 45.66 44 112.32 44 181 C14 181 14 181 9 177 C6.94872156 173.92308234 6.72739128 173.06355001 6.5859375 169.55078125 C6.54726563 168.70322266 6.50859375 167.85566406 6.46875 166.98242188 C6.42234375 165.66081055 6.42234375 165.66081055 6.375 164.3125 C6.33632813 163.41982422 6.29765625 162.52714844 6.2578125 161.60742188 C6.16359782 159.4051538 6.07798412 157.20289278 6 155 C5.175 155.70125 4.35 156.4025 3.5 157.125 C-9.56608429 167.96674356 -23.51556481 174.87188422 -40 179 C-40.7213916 179.18546387 -41.4427832 179.37092773 -42.18603516 179.56201172 C-49.63712178 181.27819584 -57.00347267 181.38456637 -64.625 181.375 C-65.28852478 181.37512085 -65.95204956 181.3752417 -66.63568115 181.37536621 C-77.10593011 181.34821258 -86.11463607 180.42913342 -96 177 C-97.61648438 176.53207031 -97.61648438 176.53207031 -99.265625 176.0546875 C-106.21737115 173.97615033 -111.91607149 170.89584896 -118 167 C-119.134375 166.401875 -120.26875 165.80375 -121.4375 165.1875 C-142.81654866 153.01401818 -158.44949521 130.53493814 -164.96875 107.11328125 C-169.51507497 89.55520585 -169.84629875 73.72256116 -166 56 C-165.74476563 54.81277344 -165.48953125 53.62554687 -165.2265625 52.40234375 C-161.04372652 35.69018714 -151.69236106 21.46402334 -140 9 C-139.34 9 -138.68 9 -138 9 C-138 8.34 -138 7.68 -138 7 C-132.52380952 2 -132.52380952 2 -130 2 C-130 1.34 -130 0.68 -130 0 C-119.90558907 -8.33506366 -107.40491624 -13.3361694 -95 -17 C-93.94683594 -17.32613281 -92.89367187 -17.65226563 -91.80859375 -17.98828125 C-61.47336829 -26.89055187 -24.90418429 -19.26262418 0 0 Z M-112.44921875 38.1953125 C-123.42153295 50.96410131 -129.9918514 65.97490658 -129.44140625 83.07421875 C-127.77843595 97.86435285 -121.83186166 110.79862747 -112 122 C-111.34 122 -110.68 122 -110 122 C-109.67 122.99 -109.34 123.98 -109 125 C-105.94491974 128.03277199 -105.94491974 128.03277199 -102 129 C-102 129.66 -102 130.32 -102 131 C-99.46080994 132.29673602 -96.91885762 133.58747837 -94.375 134.875 C-93.66214844 135.23980469 -92.94929687 135.60460937 -92.21484375 135.98046875 C-77.05155063 143.6316717 -60.19192482 143.96776471 -44 139 C-36.85987579 136.15085733 -30.754998 132.40636706 -24.83984375 127.515625 C-23 126 -23 126 -20 124 C-20 123.34 -20 122.68 -20 122 C-19.34 122 -18.68 122 -18 122 C-15.60179695 119.36315253 -15.60179695 119.36315253 -15 116 C-14.34 116 -13.68 116 -13 116 C-4.76709015 104.27554284 0.52598975 89.4969026 -1 75 C-4.27421335 56.81241763 -11.68422187 41.20397457 -27.0625 30.125 C-39.21209493 22.12542127 -50.34989437 18.82222229 -64.875 18.8125 C-65.83019531 18.80025391 -66.78539062 18.78800781 -67.76953125 18.77539062 C-84.25043392 18.7414793 -101.15791163 26.06861035 -112.44921875 38.1953125 Z " fill="#ED4C2C" transform="translate(942,229)"/>
<path d="M0 0 C0.91440353 -0.05161285 1.82880707 -0.10322571 2.7709198 -0.15640259 C28.91383091 -1.33723567 28.91383091 -1.33723567 36.68115234 2.85839844 C41.23833642 7.33670211 43.21874936 13.02385569 45.33789062 18.94482422 C47.54693603 24.42746609 50.7632058 29.29024715 53.91784668 34.26434326 C55.77895473 37.22050183 57.5738369 40.21646407 59.37890625 43.20703125 C63.9822269 50.78944436 68.68401644 58.30944817 73.39990234 65.82226562 C77.65708078 72.60717955 81.85433762 79.42582399 86.01660156 86.26928711 C88.91402717 91.0266059 91.88270386 95.73209168 94.89453125 100.41796875 C97.57987244 104.68956236 100.15665333 109.02558549 102.72900391 113.3659668 C104.45661075 116.47194276 104.45661075 116.47194276 106.66015625 119.2265625 C106.95672119 118.70860107 107.25328613 118.19063965 107.55883789 117.65698242 C112.58324864 108.89465124 117.61220431 100.1734968 123.11328125 91.69921875 C125.24412435 88.29309835 127.13689067 84.77683905 129.0078125 81.22265625 C131.43725952 76.81748873 134.06120191 72.5332827 136.66015625 68.2265625 C137.83289705 66.26614267 139.00474289 64.30518724 140.17578125 62.34375 C146.17278126 52.31556164 152.18742617 42.30880713 158.43554688 32.43481445 C161.25572675 27.95017783 163.80915129 23.36631266 166.2890625 18.6875 C168.09156792 15.45223387 170.13866762 12.42383418 172.265625 9.39453125 C173.95323297 6.77093903 175.28112608 4.02251222 176.66015625 1.2265625 C182.30182616 1.17715751 187.94337038 1.14084057 193.58520508 1.11669922 C195.50482374 1.10663611 197.42442706 1.09298434 199.34399414 1.07568359 C202.10176377 1.05144886 204.85933089 1.04008258 207.6171875 1.03125 C208.90638847 1.01576614 208.90638847 1.01576614 210.22163391 0.99996948 C211.0222374 0.99981842 211.82284088 0.99966736 212.64770508 0.99951172 C213.35163895 0.9950705 214.05557281 0.99062927 214.78083801 0.98605347 C216.66015625 1.2265625 216.66015625 1.2265625 219.66015625 3.2265625 C221.18548355 8.95255903 219.70544901 13.80949596 216.87109375 18.828125 C215.61385757 20.84941256 214.33392003 22.8567044 213.03515625 24.8515625 C211.65325811 27.05883881 210.27309315 29.267201 208.89453125 31.4765625 C208.36522507 32.31460922 208.36522507 32.31460922 207.82522583 33.16958618 C204.15913454 38.9760529 200.71735468 44.90500758 197.28515625 50.8515625 C191.20543898 61.31616772 185.05141065 71.72719772 178.703125 82.03125 C177.9455188 83.26319092 177.9455188 83.26319092 177.17260742 84.52001953 C176.18483218 86.124377 175.19423104 87.726999 174.20043945 89.32763672 C173.53081177 90.41455811 173.53081177 90.41455811 172.84765625 91.5234375 C172.25017578 92.48781738 172.25017578 92.48781738 171.640625 93.47167969 C170.50903921 95.36882491 170.50903921 95.36882491 169.66015625 98.2265625 C169.00015625 98.2265625 168.34015625 98.2265625 167.66015625 98.2265625 C167.55058594 98.79246094 167.44101563 99.35835938 167.328125 99.94140625 C166.56295129 102.55910577 165.42204839 104.47992594 163.97265625 106.7890625 C161.74668823 110.40161203 159.65398873 114.04339304 157.66015625 117.7890625 C155.80798881 121.22811298 153.86624196 124.50360916 151.66015625 127.7265625 C148.94587859 131.70004113 146.66786699 135.81099438 144.3984375 140.05078125 C141.1152104 146.04912649 137.58912966 151.90775811 134.10351562 157.79003906 C132.59419021 160.33791924 131.08777899 162.88750398 129.58203125 165.4375 C127.39951248 169.13344905 125.21587931 172.82873557 123.03125 176.5234375 C120.77162927 180.34528948 118.51392696 184.16826469 116.2578125 187.9921875 C111.23548993 196.50265922 106.20742396 205.00866152 101.10791016 213.47314453 C97.23259151 219.91566478 93.42839297 226.40003494 89.61303711 232.87817383 C86.04183473 238.92741739 82.40755173 244.93351217 78.72265625 250.9140625 C75.308221 256.45851542 72.04667177 262.04212198 68.98046875 267.7890625 C65.65902559 273.92095757 61.94002409 279.80734419 58.16015625 285.6640625 C55.20558471 290.26587305 52.55832611 294.97415425 50.01953125 299.81640625 C49.5709375 300.61175781 49.12234375 301.40710938 48.66015625 302.2265625 C48.32145508 302.92604004 47.98275391 303.62551758 47.63378906 304.34619141 C44.48972775 307.34168376 40.83482127 306.77700086 36.72265625 306.72265625 C35.40793335 306.7248391 35.40793335 306.7248391 34.06665039 306.72706604 C32.21399613 306.72540644 30.36132817 306.71383823 28.50878906 306.69311523 C25.67062915 306.66416931 22.83433761 306.67250257 19.99609375 306.68554688 C18.19660549 306.67930922 16.39712314 306.67091807 14.59765625 306.66015625 C13.7476001 306.66309189 12.89754395 306.66602753 12.02172852 306.66905212 C6.12637638 306.574507 6.12637638 306.574507 3.93603516 304.93983459 C1.75142128 302.00629758 2.16905327 298.68415938 2.66015625 295.2265625 C3.8828125 292.26171875 3.8828125 292.26171875 5.72265625 289.2890625 C6.06482178 288.7233252 6.4069873 288.15758789 6.75952148 287.57470703 C7.56434594 286.24648199 8.3769332 284.92294381 9.1953125 283.60302734 C11.58456964 279.72685584 13.90935394 275.81217704 16.24584961 271.90405273 C18.14953988 268.72371208 20.06246857 265.54908649 21.9765625 262.375 C24.52019788 258.1389965 27.05290112 253.89689446 29.5625 249.640625 C30.41896118 248.18970459 30.41896118 248.18970459 31.29272461 246.70947266 C32.76501682 244.21308278 32.76501682 244.21308278 33.66015625 241.2265625 C34.32015625 241.2265625 34.98015625 241.2265625 35.66015625 241.2265625 C35.78261719 240.65421875 35.90507813 240.081875 36.03125 239.4921875 C36.68778493 237.12703059 37.59739137 235.15449453 38.72265625 232.9765625 C39.08488281 232.27015625 39.44710938 231.56375 39.8203125 230.8359375 C40.09746094 230.30484375 40.37460938 229.77375 40.66015625 229.2265625 C41.32015625 229.2265625 41.98015625 229.2265625 42.66015625 229.2265625 C42.76972656 228.48664063 42.87929687 227.74671875 42.9921875 226.984375 C43.69406569 224.08656212 44.61193337 222.49786233 46.34765625 220.1015625 C48.57504668 216.88948647 50.57037763 213.67549223 52.41015625 210.2265625 C54.99926381 205.38045804 57.73733735 200.64128433 60.53515625 195.9140625 C64.37851326 189.41491476 68.18594796 182.8996982 71.890625 176.3203125 C72.99998633 174.38076687 74.14372755 172.46006254 75.3359375 170.5703125 C78.10574509 166.2221462 78.10574509 166.2221462 78.34765625 161.2265625 C76.484811 157.91483762 74.4364788 154.80084514 72.27734375 151.67578125 C70.70246354 149.29063658 69.36124028 146.88210746 68.03515625 144.3515625 C62.76782406 134.48400088 56.49004553 125.16523119 50.43359375 115.76953125 C42.66015625 103.67935505 42.66015625 103.67935505 42.66015625 100.2265625 C42.00015625 100.2265625 41.34015625 100.2265625 40.66015625 100.2265625 C40.36625 99.65292969 40.07234375 99.07929688 39.76953125 98.48828125 C35.9692229 91.29172032 31.69652294 84.4674837 27.32055664 77.61083984 C24.05504565 72.47825082 20.89751987 67.30231041 17.84765625 62.0390625 C13.7560242 54.99320476 9.48521337 48.06887443 5.16015625 41.1640625 C4.51957275 40.13909668 3.87898926 39.11413086 3.21899414 38.05810547 C0.34997867 33.47721354 -2.53447932 28.90956626 -5.48828125 24.3828125 C-5.95427734 23.66101807 -6.42027344 22.93922363 -6.90039062 22.19555664 C-7.74278246 20.89363567 -8.59483201 19.59788298 -9.45898438 18.31030273 C-12.03703711 14.30703519 -13.35091525 11.01498605 -13.33984375 6.2265625 C-10.15021777 0.29527627 -6.15485374 0.28757802 0 0 Z " fill="#EE4C2C" transform="translate(1032.33984375,205.7734375)"/>
<path d="M0 0 C1.1015625 2.359375 1.1015625 2.359375 1 5 C-0.4765625 8.078125 -0.4765625 8.078125 -2.625 11.25 C-3.66527344 12.83554688 -3.66527344 12.83554688 -4.7265625 14.453125 C-7 17 -7 17 -9.4296875 18.0546875 C-12.90045464 17.98084139 -14.60866564 16.77343108 -17.5 14.875 C-36.50916033 3.22870567 -59.8756134 -1.2456145 -81.8828125 2.6953125 C-93.94878985 6.36756648 -102.3291269 13.88309591 -108.765625 24.5 C-111.97555965 31.00113346 -111.89083291 38.69681026 -109.875 45.5625 C-105.11098153 58.30347962 -94.31442882 65.44641631 -82.50390625 71.01171875 C-73.22998361 75.20437729 -63.56831991 78.80893225 -53.75 81.5 C-46.83292229 83.47802049 -40.42224153 86.80958586 -34 90 C-33.35804688 90.31630371 -32.71609375 90.63260742 -32.0546875 90.95849609 C-13.79332928 100.03834652 3.05838577 111.89433355 10 132 C13.53435808 148.20296626 11.16342495 165.68248035 2.5078125 179.91796875 C-0.6459886 184.27282882 -4.23904069 188.16684077 -8 192 C-8.54269531 192.5671875 -9.08539063 193.134375 -9.64453125 193.71875 C-26.60535561 209.86373724 -51.67447761 210.58064692 -73.50830078 210.13183594 C-80.55115635 209.86591914 -87.19459991 208.86057733 -94 207 C-95.09030518 206.70198486 -95.09030518 206.70198486 -96.20263672 206.39794922 C-112.99924407 201.62395075 -130.484597 193.515403 -143 181 C-142.80541106 176.23680109 -140.14599197 172.90804716 -137.4375 169.1875 C-137.01275391 168.59001953 -136.58800781 167.99253906 -136.15039062 167.37695312 C-135.10776741 165.91259467 -134.05489548 164.45554265 -133 163 C-128.1853913 163.48568421 -125.53640055 164.71166125 -121.75 167.6875 C-112.29738528 174.8055092 -103.04460168 179.59136787 -91.87646484 183.36572266 C-90.2818142 183.90474196 -88.6964076 184.4709867 -87.11328125 185.04296875 C-80.26527054 187.17235018 -73.48826183 187.27301009 -66.375 187.3125 C-65.40876709 187.31813965 -64.44253418 187.3237793 -63.44702148 187.32958984 C-48.93324917 187.18344895 -33.16900873 183.3802768 -22.18359375 173.33984375 C-14.70051323 165.10657972 -12.33910592 156.12595714 -12.6015625 145.21875 C-13.19423494 135.88731161 -18.5666544 128.33425976 -25.28515625 122.15234375 C-35.61255624 113.9647216 -46.73013285 109.29912316 -59.07373047 105.02783203 C-103.36207715 89.4718551 -103.36207715 89.4718551 -117 77 C-117.63164062 76.44828125 -118.26328125 75.8965625 -118.9140625 75.328125 C-129.21724785 65.79654384 -134.91288525 53.29678309 -135.47070312 39.33056641 C-135.67287079 23.24812899 -130.40239952 10.55596443 -119.375 -1.1875 C-88.86548073 -30.22223888 -31.93534109 -25.50962193 0 0 Z " fill="#FEFCFB" transform="translate(291,155)"/>
</svg>
